<svg width="374" height="385" viewBox="0 0 374 385" fill="none" xmlns="http://www.w3.org/2000/svg">
<mask id="mask0" style="mask-type:alpha" maskUnits="userSpaceOnUse" x="0" y="0" width="375" height="385">
<rect width="375" height="385" fill="white"/>
</mask>
<g mask="url(#mask0)">
<ellipse opacity="0.2" cx="185.122" cy="363.772" rx="167.424" ry="8.99" fill="#71ABDE"/>
<path fill-rule="evenodd" clip-rule="evenodd" d="M169.563 228.055C169.563 228.055 182.4 225.972 188.789 228.272C193.412 229.935 198.961 233.904 200.449 245.895C200.449 245.895 185.165 250.395 169.564 250.543C169.563 250.544 167.163 236.523 169.563 228.055Z" fill="#F3AE92"/>
<path opacity="0.5" fill-rule="evenodd" clip-rule="evenodd" d="M181.162 249.728C181.574 246.188 181.942 240.219 180.362 236.613C179.062 233.642 174.714 231.175 169.043 230.342C167.551 238.824 169.556 250.542 169.556 250.542C173.437 250.489 177.312 250.217 181.162 249.728H181.162Z" fill="#EB7C74"/>
<path opacity="0.2" fill-rule="evenodd" clip-rule="evenodd" d="M188.789 228.272C185.683 227.379 182.449 227.018 179.223 227.203C182.406 227.344 192.536 229.791 195.473 236.547C196.774 239.745 197.697 243.083 198.224 246.495C199.642 246.131 200.449 245.895 200.449 245.895C198.959 233.904 193.41 229.936 188.789 228.272Z" fill="white"/>
<path fill-rule="evenodd" clip-rule="evenodd" d="M74.0785 242.617C68.1145 240.793 68.4365 240.475 62.9375 238.486C57.4385 236.497 56.7254 236.286 51.9925 234.527C47.2596 232.768 30.4995 230.465 23.0755 252.249C15.4236 274.698 23.9465 282.023 28.9505 285.735C36.7185 291.498 54.6805 298.027 59.8806 300.155C59.8795 300.155 49.6914 263.34 74.0785 242.617Z" fill="#F29297"/>
<path fill-rule="evenodd" clip-rule="evenodd" d="M74.0785 242.617C68.1145 240.793 68.4365 240.475 62.9375 238.486C57.4385 236.497 56.7254 236.286 51.9925 234.527C47.2596 232.768 30.4995 230.465 23.0755 252.249C15.4236 274.698 23.9465 282.023 28.9505 285.735C36.7185 291.498 54.6805 298.027 59.8806 300.155C59.8795 300.155 49.6914 263.34 74.0785 242.617Z" fill="#F29297"/>
<path fill-rule="evenodd" clip-rule="evenodd" d="M72.853 242.995C64.853 240.852 53.977 236.501 50.1939 235.556C46.4108 234.611 40.7359 234.893 37.6149 237.542C34.4939 240.191 42.17 237.513 51.342 240.634C60.514 243.755 64.376 245.62 67.431 246.792C70.4859 247.964 72.853 242.995 72.853 242.995Z" fill="#F5A9A7"/>
<path opacity="0.5" fill-rule="evenodd" clip-rule="evenodd" d="M47.0496 262.173C41.6326 259.71 35.7266 257.235 32.2495 253.36C25.1925 245.495 30.7605 239.16 35.1655 236.06C30.5525 238.633 26.0596 243.493 23.0756 252.249C15.4236 274.698 23.9465 282.023 28.9496 285.735C36.7186 291.498 54.6805 298.027 59.8806 300.155C59.8806 300.155 55.5076 284.348 59.3527 267.619C55.1106 265.795 50.9966 263.967 47.0496 262.173Z" fill="#EC6469"/>
<path opacity="0.5" fill-rule="evenodd" clip-rule="evenodd" d="M29.5276 240.635C26.6157 244.032 24.4202 247.983 23.0726 252.25C15.4207 274.699 23.9436 282.024 28.9467 285.736C36.7157 291.499 54.6776 298.028 59.8777 300.156C58.481 294.407 57.776 288.511 57.7776 282.594C49.3569 279.222 41.2502 275.113 33.5518 270.316C17.2606 259.669 28.5746 242.06 29.5276 240.635Z" fill="#E73555"/>
<path fill-rule="evenodd" clip-rule="evenodd" d="M94.3662 310.19C93.8287 310.921 92.9545 311.326 92.0492 311.264C90.0282 311.23 86.0032 309.273 75.6983 306.025C67.4132 303.414 62.2203 302.372 60.6673 300.983C56.7983 297.523 51.9912 284.521 55.5313 268.198C58.8413 252.939 68.8813 244.838 72.3313 243.222C75.1563 241.899 78.2104 242.176 83.9943 243.9C87.4941 244.942 91.0574 245.758 94.6621 246.341C96.7183 246.675 98.6873 246.917 100.546 247.088C105.441 247.536 104.534 249.361 104.534 249.361C104.534 249.361 87.6443 255.656 83.7793 274.07C78.9113 297.259 94.3662 310.19 94.3662 310.19Z" fill="#16A461"/>
<path fill-rule="evenodd" clip-rule="evenodd" d="M72.8527 242.996C72.6776 243.065 72.5027 243.14 72.3286 243.222C70.5345 244.174 68.8846 245.377 67.4287 246.793C74.848 249.735 82.4416 252.216 90.1663 254.224C90.1666 254.224 94.5126 253.808 97.8196 253.119C99.0006 252.283 100.105 251.598 101.063 251.055C100.136 250.587 99.1432 250.266 98.1187 250.101C89.7997 248.313 77.9316 244.618 72.8527 242.996Z" fill="#3EC664"/>
<path fill-rule="evenodd" clip-rule="evenodd" d="M56.0213 266.242C55.8503 266.886 55.6773 267.525 55.5313 268.197C51.9912 284.52 56.7983 297.522 60.6673 300.983C62.2203 302.372 67.4142 303.415 75.6983 306.025C86.0033 309.273 90.0282 311.231 92.0492 311.264C92.9545 311.326 93.8286 310.921 94.3662 310.19C94.3662 310.19 80.3553 298.45 83.2303 277.295C73.7813 273.807 64.6012 270.016 56.0213 266.242Z" fill="#16935D"/>
<path fill-rule="evenodd" clip-rule="evenodd" d="M92.0502 311.263C92.9553 311.325 93.8295 310.92 94.3671 310.189C90.3011 306.375 87.1873 301.661 85.2762 296.424L77.3762 289.854C77.3762 289.854 66.5652 286.459 54.3252 281.143C54.6462 291.127 57.8982 298.502 60.6702 300.981C62.2231 302.37 67.4171 303.412 75.7012 306.023C86.0042 309.272 90.0292 311.23 92.0502 311.263Z" fill="#0E7F4C"/>
<path fill-rule="evenodd" clip-rule="evenodd" d="M69.4199 273.357C72.9249 252.623 91.7789 246.724 94.0919 246.24C90.941 245.707 87.8228 244.997 84.7518 244.114H84.7379C81.5759 244.463 65.3808 251.814 62.4578 270.394C59.6248 288.394 66.8428 301.456 69.3848 304.127C71.2319 304.661 73.3338 305.276 75.6978 306.02C76.8729 306.391 77.9559 306.741 78.9738 307.077C78.9738 307.077 66.0529 293.274 69.4199 273.357Z" fill="#FFD348"/>
<path fill-rule="evenodd" clip-rule="evenodd" d="M80.8867 245.486C78.6624 246.581 76.5668 247.92 74.6387 249.479C77.0327 250.325 79.6666 251.209 82.4116 252.053C84.5833 250.432 86.9231 249.05 89.3906 247.931C86.4807 247.138 83.5477 246.286 80.8867 245.486Z" fill="#FFE568"/>
<g style="mix-blend-mode:multiply" opacity="0.1">
<path fill-rule="evenodd" clip-rule="evenodd" d="M78.9699 307.081H78.9759C78.9759 307.081 66.0529 293.274 69.4199 273.358C69.4969 272.905 69.5888 272.468 69.6799 272.03C67.3191 271.069 64.9896 270.103 62.6909 269.13C62.6088 269.55 62.5258 269.971 62.4578 270.404C59.6248 288.404 66.8428 301.466 69.3848 304.137L69.4008 304.143L70.5499 304.476L70.9738 304.6L71.9669 304.892L72.4909 305.048C72.8409 305.148 73.2009 305.262 73.5649 305.372L74.0558 305.52C74.5888 305.684 75.1338 305.852 75.6968 306.029C76.2908 306.217 76.8608 306.399 77.4098 306.576C77.9589 306.753 78.4689 306.915 78.9699 307.081Z" fill="#E85D1C"/>
</g>
<g style="mix-blend-mode:multiply" opacity="0.3">
<path fill-rule="evenodd" clip-rule="evenodd" d="M77.4148 306.572C77.9418 306.741 78.4458 306.906 78.9368 307.072L78.9728 307.083H78.9788C74.1462 301.38 70.8864 294.514 69.5217 287.165C67.3588 286.383 64.8528 285.447 62.1377 284.377C63.3376 294.963 67.5647 302.218 69.3877 304.134H69.3977L70.5437 304.466H70.5537L70.8588 304.555C71.3174 304.688 71.79 304.828 72.2767 304.973L72.4948 305.038L73.5558 305.358H73.5658L74.0568 305.506C74.5887 305.669 75.1328 305.837 75.6947 306.014C76.2887 306.202 76.8586 306.384 77.4077 306.561L77.4148 306.572Z" fill="#E85D1C"/>
</g>
<path fill-rule="evenodd" clip-rule="evenodd" d="M274.69 223.566C274.69 223.566 271.605 222.454 260.075 226.925C248.545 231.396 181.008 254.852 104.536 249.36C104.536 249.36 88.7703 247.2 79.1224 269.418C69.4744 291.636 88.2274 307.367 88.2274 307.367C88.2274 307.367 114.472 322.348 177.82 325.286C238.751 328.112 268.141 321.286 281.047 317.986C294.439 314.563 299.029 311.833 299.811 310.108C300.557 308.453 274.69 223.566 274.69 223.566Z" fill="#FFD348"/>
<g style="mix-blend-mode:multiply" opacity="0.1">
<path fill-rule="evenodd" clip-rule="evenodd" d="M153.118 292.711C129.577 292.647 102.185 284.687 77.2312 275.038C72.5902 294.238 88.2221 307.368 88.2221 307.368C88.2221 307.368 114.468 322.349 177.815 325.287C238.746 328.113 268.136 321.287 281.042 317.987C294.434 314.564 299.024 311.834 299.806 310.109C299.996 309.69 298.468 303.896 296.085 295.493L249.216 284.517C249.216 284.517 207.31 292.859 153.118 292.711Z" fill="#E85D1C"/>
</g>
<path fill-rule="evenodd" clip-rule="evenodd" d="M274.689 223.566C274.689 223.566 271.605 222.454 260.074 226.925C248.543 231.396 181.005 254.852 104.531 249.36C104.531 249.36 91.2201 247.553 81.5762 264.497C145.115 285.666 218.546 269.418 241.989 262.003L275.91 250.814L280.987 244.37C277.375 232.376 274.689 223.566 274.689 223.566Z" fill="#FFDA60"/>
<path fill-rule="evenodd" clip-rule="evenodd" d="M258.817 238.423C258.817 238.423 275.87 225.371 270.158 226.631C264.446 227.891 239.486 240.364 187.344 248.809C157.823 253.568 127.765 254.003 98.1188 250.099C95.2306 250.956 92.5322 252.355 90.168 254.222C103.236 257.305 128.235 262.001 162.484 259.709C217.407 256.037 249.081 242.567 258.817 238.423Z" fill="#FFE568"/>
<path d="M81.5762 264.497C145.115 285.666 218.546 269.418 241.989 262.003" stroke="#FFEAA8" stroke-width="3"/>
<path fill-rule="evenodd" clip-rule="evenodd" d="M255.851 299.916C245.678 303.527 167.474 320.885 77.376 289.855C79.2948 296.587 83.0504 302.651 88.2219 307.368C88.2219 307.368 114.467 322.349 177.815 325.287C238.746 328.113 268.136 321.287 281.042 317.987C294.434 314.564 299.024 311.834 299.806 310.109C300.047 309.577 297.524 300.399 293.995 288.209L255.851 299.916Z" fill="#FECB2F"/>
<g style="mix-blend-mode:multiply" opacity="0.3">
<path fill-rule="evenodd" clip-rule="evenodd" d="M299.807 310.106C299.739 309.071 299.545 308.049 299.23 307.061L277.888 306.077C253.242 317.266 147.018 331.354 77.377 289.855C78.2371 293.057 79.5612 296.117 81.3071 298.936C83.1862 302.071 85.5161 304.912 88.2222 307.368C88.222 307.368 114.467 322.349 177.815 325.287C238.746 328.113 268.136 321.287 281.042 317.987C294.435 314.561 299.025 311.83 299.807 310.106Z" fill="#E85D1C"/>
</g>
<path d="M255.851 299.916C245.678 303.527 167.474 320.885 77.376 289.855" stroke="#FFE568" stroke-width="3"/>
<path fill-rule="evenodd" clip-rule="evenodd" d="M103.464 277.312C98.2003 276.178 95.6454 275.598 91.8894 274.971C85.3584 273.882 84.5084 282.434 89.5564 285.271C93.4712 287.445 97.702 288.993 102.095 289.858C104.686 290.442 107.341 290.691 109.995 290.601C112.531 290.465 114.895 288.967 115.465 286.694C116.22 283.897 114.823 280.968 112.174 279.794C109.367 278.662 106.447 277.83 103.464 277.312Z" fill="#16A461"/>
<path fill-rule="evenodd" clip-rule="evenodd" d="M89.5562 285.268C93.471 287.442 97.7018 288.99 102.095 289.855C104.686 290.439 107.341 290.688 109.995 290.598C112.208 290.567 114.222 289.315 115.229 287.345C105.609 284.936 95.8992 281.872 86.4202 278.466C85.9094 281.17 87.1683 283.901 89.5562 285.268Z" fill="#16935D"/>
<path fill-rule="evenodd" clip-rule="evenodd" d="M107.07 288.378C106.47 288.333 106.176 288.306 105.585 288.243C104.985 287.601 104.693 287.275 104.133 286.615C100.841 282.659 99.6418 280.62 97.5168 279.88C96.0838 279.38 94.4888 279.435 93.5668 281.223C93.1175 282.199 93.1055 283.319 93.5339 284.304C92.8268 284.27 92.4728 284.246 91.7648 284.183C91.2907 282.853 91.4245 281.382 92.1308 280.159C93.2408 278.067 95.7676 277.174 97.9457 278.103C100.433 278.973 101.937 281.217 104.609 284.458C104.993 284.948 105.19 285.191 105.596 285.671L105.647 285.677C106.164 283.292 106.381 282.095 106.726 279.702C107.39 279.768 107.726 279.794 108.396 279.831C108.124 282.704 107.681 285.558 107.07 288.378L107.07 288.378Z" fill="#FFD348"/>
<path fill-rule="evenodd" clip-rule="evenodd" d="M274.691 223.565C271.691 224.365 262.132 233.798 255.616 242.45C249.1 251.102 242.465 258.45 241.99 262.003C241.515 265.556 246.848 277.879 249.217 284.514C251.586 291.149 254.786 298.614 255.852 299.914C256.918 301.214 271.847 304.414 277.889 306.075C283.931 307.736 297.675 310.575 299.808 310.104C301.941 309.633 322.333 288.136 332.632 274.047C340.382 263.557 347.46 252.587 353.825 241.203C354.654 239.426 354.664 236.173 350.28 235.462C345.896 234.751 325.99 232.224 310.234 229.775C295.491 227.485 278.008 222.685 274.691 223.565Z" fill="#F8E9D0"/>
<path fill-rule="evenodd" clip-rule="evenodd" d="M352.187 236.051C351.585 235.759 350.942 235.561 350.28 235.463C345.897 234.752 325.99 232.225 310.234 229.776C295.491 227.484 278.008 222.685 274.69 223.565C271.69 224.365 262.131 233.798 255.615 242.45C250.278 249.537 244.867 255.742 242.821 259.711C246.563 258.526 260.831 256.011 290.286 250.542C295.772 249.524 302.369 248.231 307.786 247.272C322.823 244.539 337.657 240.79 352.187 236.051L352.187 236.051Z" fill="#FCF1E0"/>
<path fill-rule="evenodd" clip-rule="evenodd" d="M352.187 236.051C355.338 240.066 349.414 244.1 343.004 249.606C336.594 255.112 321.936 265.719 294.764 274.048C266.644 282.669 260.509 282.669 249.219 284.513C251.588 291.148 254.788 298.613 255.854 299.913C256.92 301.213 271.849 304.413 277.891 306.074C283.933 307.735 297.677 310.574 299.81 310.103C301.943 309.632 322.335 288.135 332.634 274.046C340.383 263.556 347.461 252.586 353.825 241.202C354.313 240.306 354.415 239.249 354.105 238.277C353.796 237.304 353.103 236.5 352.187 236.051Z" fill="#F5DFCE"/>
<path fill-rule="evenodd" clip-rule="evenodd" d="M344.494 236.552C344.494 236.552 323.457 235.315 307.762 232.616C293.445 230.154 273.962 226.116 270.162 226.634C266.086 230.269 262.295 234.211 258.821 238.426C260.291 237.467 267.166 237.315 286.821 238.433C303.339 239.372 335.144 239.105 344.494 236.552Z" fill="#FFF8ED"/>
<path fill-rule="evenodd" clip-rule="evenodd" d="M351.743 244.963C342.293 260.563 311.717 290.671 277.89 306.076C283.933 307.735 297.676 310.576 299.809 310.105C301.942 309.634 322.334 288.137 332.633 274.048C341.515 261.898 348.433 250.671 351.743 244.963H351.743Z" fill="#EDC1AD"/>
<path fill-rule="evenodd" clip-rule="evenodd" d="M350.28 235.463C346.241 234.808 329.025 232.611 314.018 230.354C314.018 230.354 303.812 239.441 309.469 255.739C315.126 272.037 332.632 274.048 332.632 274.048C340.382 263.558 347.461 252.588 353.825 241.204C354.655 239.427 354.664 236.175 350.28 235.463Z" fill="#194A72"/>
<path fill-rule="evenodd" clip-rule="evenodd" d="M349.691 235.371L349.315 235.315L349.103 235.283L348.727 235.227L348.427 235.184L348.056 235.13L347.717 235.082L347.306 235.024L346.952 234.974L346.464 234.906L346.145 234.861L345.545 234.778L345.256 234.739C338.045 233.739 325.4 232.066 314.021 230.355C309.647 234.86 307.383 241.005 307.79 247.271C331.621 243.049 354.861 237.305 350.283 235.463L349.842 235.394L349.691 235.371Z" fill="#29688C"/>
<path fill-rule="evenodd" clip-rule="evenodd" d="M353.996 240.768C354.022 240.693 354.047 240.617 354.069 240.539C354.083 240.49 354.096 240.439 354.108 240.392C354.126 240.321 354.141 240.25 354.157 240.178C354.169 240.122 354.18 240.064 354.19 240.007C354.2 239.95 354.208 239.874 354.217 239.807C354.226 239.74 354.233 239.68 354.238 239.615C354.238 239.565 354.238 239.515 354.244 239.463C354.251 239.304 354.248 239.144 354.236 238.985C354.236 238.95 354.236 238.914 354.228 238.879C354.218 238.788 354.204 238.698 354.188 238.608C354.181 238.571 354.175 238.534 354.168 238.497C354.148 238.404 354.125 238.312 354.097 238.22C354.088 238.189 354.079 238.161 354.069 238.131C354.036 238.031 354.001 237.931 353.959 237.836L353.949 237.813C353.793 237.461 353.576 237.138 353.308 236.861L353.3 236.852C353.211 236.761 353.117 236.674 353.019 236.593L352.956 236.541C352.855 236.459 352.749 236.383 352.64 236.312C352.614 236.295 352.587 236.279 352.562 236.263C352.443 236.189 352.32 236.116 352.186 236.05C355.337 240.065 349.413 244.099 343.003 249.605C338.866 253.159 328.991 259.023 316.255 266.237C323.255 272.715 332.644 274.404 332.631 274.048C340.381 263.558 347.46 252.588 353.824 241.204C353.872 241.104 353.916 240.994 353.957 240.883C353.972 240.846 353.983 240.802 353.996 240.768Z" fill="#123668"/>
<path fill-rule="evenodd" clip-rule="evenodd" d="M308.892 238.927C323.363 238.882 338.517 238.185 344.492 236.553C344.492 236.553 326.705 235.506 311.639 233.239C310.461 234.997 309.536 236.911 308.892 238.927Z" fill="#3C8DAA"/>
<path fill-rule="evenodd" clip-rule="evenodd" d="M334.461 271.52C334.919 270.881 335.371 270.246 335.818 269.613L335.879 269.528C336.346 268.869 336.803 268.216 337.252 267.567L337.593 267.075C338.006 266.48 338.413 265.89 338.814 265.305C338.849 265.253 338.886 265.2 338.921 265.148C339.352 264.517 339.776 263.893 340.191 263.276C340.297 263.119 340.402 262.962 340.507 262.807C340.876 262.257 341.24 261.713 341.598 261.176L341.741 260.962C342.141 260.362 342.53 259.772 342.907 259.192L343.178 258.777C343.516 258.259 343.848 257.749 344.173 257.246C344.218 257.176 344.264 257.105 344.309 257.037C344.672 256.474 345.026 255.921 345.371 255.38L345.597 255.025C345.901 254.548 346.198 254.079 346.488 253.618L346.615 253.418C346.944 252.894 347.262 252.384 347.571 251.887C347.624 251.804 347.671 251.721 347.725 251.639C348.004 251.187 348.276 250.746 348.541 250.316C348.571 250.266 348.603 250.216 348.634 250.165C348.925 249.688 349.206 249.227 349.476 248.781L349.565 248.634C349.823 248.207 350.072 247.793 350.309 247.397L350.345 247.338C350.598 246.912 350.84 246.505 351.07 246.116L351.097 246.07C351.325 245.683 351.541 245.313 351.743 244.97C347.419 252.107 338.664 262.283 327.208 272.696C328.968 273.323 330.785 273.779 332.633 274.055C333.129 273.377 333.618 272.702 334.099 272.031L334.461 271.52Z" fill="#0E2D54"/>
<path fill-rule="evenodd" clip-rule="evenodd" d="M102.974 250.543C102.483 254.157 104.121 260.259 113.174 263.565C122.227 266.871 135.374 264.212 136.793 264.212C138.212 264.212 139.784 265.156 138.839 270.351C137.894 275.546 139.471 282.669 139.471 282.669C137.916 283.697 137.374 285.725 138.21 287.391C139.469 290.654 136.951 293.791 136.951 297.258C136.951 300.725 134.905 310.309 143.719 311.258C152.533 312.207 174.411 302.882 174.096 300.15C173.78 297.418 167.424 295.787 163.913 290.621C160.402 285.455 161.576 253.677 148.086 253.19C134.595 252.703 102.974 250.543 102.974 250.543Z" fill="url(#paint0_linear)"/>
<path fill-rule="evenodd" clip-rule="evenodd" d="M110.899 167.756C110.899 167.756 103.309 165.418 96.7354 172.306C91.4104 177.884 87.0074 186.539 91.3844 189.932C95.7615 193.325 110.899 167.756 110.899 167.756Z" fill="#28BBE2"/>
<g style="mix-blend-mode:multiply" opacity="0.2">
<path fill-rule="evenodd" clip-rule="evenodd" d="M110.899 167.757C105.753 169.971 101.248 173.444 97.7988 177.857C93.7179 182.94 91.252 183.023 91.193 180.157C89.282 184.104 88.8001 187.933 91.38 189.933C95.762 193.322 110.899 167.757 110.899 167.757Z" fill="#242357"/>
</g>
<path fill-rule="evenodd" clip-rule="evenodd" d="M86.0584 199.797C83.9155 199.474 79.5315 200.609 77.1415 206.086C74.7514 211.563 73.0234 224.446 76.4764 228.963C79.9294 233.48 84.3274 232.319 84.3274 232.319L86.0584 199.797Z" fill="#28BBE2"/>
<g style="mix-blend-mode:multiply" opacity="0.2">
<path fill-rule="evenodd" clip-rule="evenodd" d="M79.447 216.099C78.547 222.275 75.386 222.299 74.54 220.59C74.5591 224.04 75.104 227.165 76.478 228.962C79.931 233.478 84.329 232.318 84.329 232.318L86.0599 199.797C86.0599 199.797 81.1931 204.143 79.447 216.099Z" fill="#242357"/>
</g>
<path fill-rule="evenodd" clip-rule="evenodd" d="M141.725 166.346C137.579 164.009 124.425 162.046 114.202 166.018C103.979 169.99 88.8328 190.267 83.1188 207.046C77.4049 223.825 82.2398 239.058 100.545 241.184C118.85 243.31 128.299 240.784 132.745 238.66C137.191 236.536 144.275 221.213 147.413 204.112C150.551 187.011 141.725 166.346 141.725 166.346Z" fill="#28BBE2"/>
<g style="mix-blend-mode:multiply" opacity="0.2">
<path fill-rule="evenodd" clip-rule="evenodd" d="M141.725 166.346C140.543 165.68 132.085 164.667 123.415 167.375C115.42 169.875 102.115 179.533 94.9597 192.948C87.8048 206.363 95.6417 232.707 94.9597 234.623C94.4237 236.123 88.7858 235.63 84.2227 232.154C87.3517 236.954 92.7107 240.274 100.544 241.184C118.85 243.309 128.298 240.784 132.744 238.66C137.19 236.536 144.274 221.213 147.412 204.112C150.55 187.011 141.725 166.346 141.725 166.346Z" fill="#242357"/>
</g>
<path opacity="0.2" fill-rule="evenodd" clip-rule="evenodd" d="M82.1404 201.216C79.7934 202.563 77.2745 205.974 76.3584 210.607C75.4424 215.24 77.5705 214.539 78.1974 212.448C78.8244 210.357 79.6805 205.554 82.0564 202.867C83.9914 200.676 83.0815 200.677 82.1404 201.216Z" fill="#F5FFFE"/>
<path opacity="0.2" fill-rule="evenodd" clip-rule="evenodd" d="M103.787 168.549C100.488 169.589 97.6573 171.751 95.7867 174.66C94.3687 177.194 95.9286 177.823 97.4866 176.125C99.0446 174.427 102.079 170.574 105.129 169.44C108.179 168.306 106.484 167.757 103.787 168.549Z" fill="#F5FFFE"/>
<path opacity="0.2" fill-rule="evenodd" clip-rule="evenodd" d="M124.315 164.742C125.07 164.842 122.355 165.595 118.224 167.757C113.806 170.069 107.316 175.394 104.624 177.991C101.932 180.588 100.254 178.236 107.337 171.673C112.728 166.674 120.709 164.285 124.315 164.742Z" fill="#F5FFFE"/>
<path fill-rule="evenodd" clip-rule="evenodd" d="M166.641 183.474C167.679 185.444 171.687 198.068 168.091 204.984C164.495 211.9 160.61 207.384 160.61 207.384L164.11 184.227L166.641 183.474Z" fill="#007CB6"/>
<path fill-rule="evenodd" clip-rule="evenodd" d="M166.401 188.041C166.275 186.599 165.995 185.175 165.566 183.793L164.11 184.225L160.61 207.382C161.282 208.115 162.173 208.612 163.15 208.797C162.817 208.179 162.593 207.836 162.593 207.836C162.593 207.836 167.611 200.234 166.401 188.041Z" fill="#00629E"/>
<path fill-rule="evenodd" clip-rule="evenodd" d="M168.766 203.366C166.733 201.994 164.072 201.994 162.039 203.366C160.104 204.874 159.559 209.882 159.559 209.882L161.425 221.789C162.485 222.659 163.742 223.26 165.085 223.538C166.484 223.621 167.842 223.053 168.766 222.001C169.547 221.342 171.303 221.342 171.961 219.586C172.619 217.83 172.62 215.744 173.498 214.536C174.375 213.328 177.098 211.353 175.898 208.169C174.698 204.985 174.189 203.494 174.905 201.033C175.539 198.856 176.586 196.994 175.426 195.583C173.984 193.827 170.997 195.215 169.557 197.52C169.609 199.499 169.342 201.473 168.766 203.366Z" fill="#F8C6A3"/>
<path fill-rule="evenodd" clip-rule="evenodd" d="M169.858 210.894C169.836 210.138 166.927 209.305 164.886 207.278C162.845 205.251 164.886 201.851 167.315 202.657C165.544 202.029 163.579 202.292 162.036 203.364C160.101 204.872 159.555 209.88 159.555 209.88L161.421 221.787C162.482 222.657 163.738 223.258 165.082 223.536C166.005 223.65 166.938 223.409 167.691 222.861C166.925 223.181 166.041 222.957 165.52 222.312C164.52 221.194 165.872 218.819 166.543 217.268C167.214 215.717 163.443 214.511 165.343 211.168C166.275 209.523 169.883 211.652 169.858 210.894Z" fill="#F2A37C"/>
<path fill-rule="evenodd" clip-rule="evenodd" d="M173.573 194.798C171.889 195.046 170.411 196.048 169.557 197.52C169.609 199.499 169.342 201.473 168.765 203.367C168.765 203.367 170.814 204.69 172.283 205.718C171.745 204.911 171.366 204.009 171.168 203.06C170.543 201.076 170.594 198.94 171.313 196.988C171.761 195.998 172.569 195.215 173.573 194.798V194.798Z" fill="#F2A37C"/>
<path opacity="0.3" fill-rule="evenodd" clip-rule="evenodd" d="M174.2 200.45C173.238 202.589 174.079 205.364 174.888 207.338C175.697 209.312 175.817 211.152 173.782 214.183C174.841 212.955 176.982 211.061 175.899 208.167C174.705 204.984 174.189 203.492 174.905 201.031C175.539 198.854 176.586 196.992 175.426 195.581C175.816 196.285 175.318 197.962 174.2 200.45Z" fill="white"/>
<path fill-rule="evenodd" clip-rule="evenodd" d="M157.64 177.98C157.64 177.98 163.462 176.689 164.514 187.302C165.725 199.494 160.706 207.097 160.706 207.097C160.706 207.097 166.545 215.969 163.467 226.549C161.444 233.5 127.082 240.229 100.543 234.388C100.543 234.388 101.433 210.643 109.943 194.388C114.95 184.738 122.949 176.971 132.743 172.251L141.728 171.671C141.728 171.671 145.879 176.993 149.815 178.643C153.751 180.293 157.64 177.98 157.64 177.98Z" fill="#EFF8FC"/>
<path fill-rule="evenodd" clip-rule="evenodd" d="M129.294 236.279L141.449 226.549C141.449 226.549 126.835 229.708 118.393 228.076C109.951 226.444 107.951 217.941 110.899 214.183L108.699 209.176L104.287 209.711C102.257 217.798 101.004 226.061 100.545 234.387C109.992 236.36 119.67 236.997 129.294 236.279Z" fill="#CCE4EA"/>
<path fill-rule="evenodd" clip-rule="evenodd" d="M148.083 203.24C148.083 203.24 157.247 203.54 160.707 207.097C161.212 206.384 161.618 205.607 161.914 204.785C157.849 201.999 152.663 201.42 148.083 203.24Z" fill="#CCE4EA"/>
<path fill-rule="evenodd" clip-rule="evenodd" d="M113.077 211.839C116.832 212.786 121.767 217.672 131.717 218.324C141.667 218.976 146.196 215.909 150.829 211.839C145.211 214.051 138.992 214.199 133.275 212.258C122.459 208.528 119.375 199.287 108.293 199.036C108.117 199.036 107.949 199.045 107.777 199.049C103.99 208.236 102.161 218.707 101.295 225.849L113.077 211.839Z" fill="#CCE4EA"/>
<path fill-rule="evenodd" clip-rule="evenodd" d="M152.386 190.242C152.386 190.242 152.201 198.226 145.786 200.45C145.786 200.45 155.272 200.35 155.546 194.789C155.82 189.228 152.386 190.242 152.386 190.242Z" fill="#A9CBD3"/>
<path fill-rule="evenodd" clip-rule="evenodd" d="M148.083 181.706C148.083 181.706 148.351 189.621 153.118 190.924C158.053 192.272 154.031 181.829 153.362 181.743C152.693 181.657 148.083 181.706 148.083 181.706Z" fill="#A9CBD3"/>
<path fill-rule="evenodd" clip-rule="evenodd" d="M152.122 180.141C149.647 181.241 148.486 184.188 148.28 186.146C148.074 188.104 148.094 188.487 147.606 188.38C145.897 188.141 144.311 187.357 143.082 186.146C140.819 184.112 146.175 176.126 146.175 176.126H147.162C149.084 176.127 150.826 177.254 151.613 179.007L152.122 180.141Z" fill="#A9CBD3"/>
<path fill-rule="evenodd" clip-rule="evenodd" d="M160.147 182.337C161.479 183.844 161.377 187.019 161.479 187.681C161.58 188.343 164.845 186.041 165.086 184.796C165.326 183.551 163.398 178.152 163.398 178.152L160.147 182.337Z" fill="#A9CBD3"/>
<path fill-rule="evenodd" clip-rule="evenodd" d="M134.343 173.655L140.689 173.245C142.717 178.431 142.717 184.191 140.689 189.377C137.315 198.321 130.573 202.561 122.925 201.755L134.343 173.655Z" fill="#CCE4EA"/>
<path fill-rule="evenodd" clip-rule="evenodd" d="M132.739 172.253L139.085 171.843C141.113 177.029 141.113 182.788 139.085 187.974C135.71 196.919 128.968 201.158 121.321 200.353L132.739 172.253Z" fill="#007CB6"/>
<path fill-rule="evenodd" clip-rule="evenodd" d="M121.322 200.353C122.49 200.474 123.667 200.472 124.834 200.347C128.341 196.314 132.511 191.254 134.507 187.836C137.14 183.312 137.552 177.831 135.625 172.964C135.399 172.629 135.108 172.343 134.77 172.122L132.74 172.253L121.322 200.353Z" fill="#00629E"/>
<path fill-rule="evenodd" clip-rule="evenodd" d="M120.125 197.493C120.125 197.493 88.9021 236.276 86.5731 238.954C84.2441 241.632 83.7792 244.31 78.4221 244.194C73.0651 244.078 69.1072 245.125 64.6821 246.173C60.2571 247.221 57.1141 246.873 57.4622 244.309C57.8102 241.745 62.9352 238.487 62.9352 238.487L51.9902 234.528C53.2513 232.916 55.1825 231.972 57.2292 231.966C60.8383 231.849 66.7772 233.48 68.5243 233.48C70.2714 233.48 71.9012 232.315 75.1622 227.89C78.4232 223.465 103.34 189.931 103.34 189.931L120.125 197.493Z" fill="#F8C6A3"/>
<path fill-rule="evenodd" clip-rule="evenodd" d="M99.7754 194.73C97.7513 197.455 95.0564 201.083 92.1754 204.96C94.4884 207.699 96.8644 210 97.8754 210.253C99.1884 210.581 102.656 209.662 104.286 209.711C104.286 209.711 84.5323 235.971 82.0154 238.865C79.4984 241.759 74.7444 240.736 70.3934 241.986C66.0425 243.236 60.6604 247.241 57.6084 245.486C58.2974 246.95 61.0594 247.032 64.6833 246.174C69.1073 245.125 73.0674 244.074 78.4233 244.195C83.7793 244.316 84.2463 241.633 86.5743 238.955C88.3373 236.929 106.644 214.228 115.446 203.303L99.7754 194.73Z" fill="#F2A37C"/>
<path fill-rule="evenodd" clip-rule="evenodd" d="M65.9802 236.851C65.9802 236.851 55.2233 234.259 54.2963 233.908C53.4862 233.602 54.2633 232.622 54.8752 232.423C53.7303 232.832 52.7284 233.564 51.9902 234.53L62.9352 238.489C63.9214 237.891 64.9377 237.344 65.9803 236.851H65.9802Z" fill="#F2A37C"/>
<path opacity="0.3" fill-rule="evenodd" clip-rule="evenodd" d="M75.1628 227.892C71.9019 232.317 70.2719 233.482 68.5249 233.482C66.778 233.482 60.8398 231.851 57.2299 231.968C56.9601 231.978 56.691 232.002 56.4238 232.04C60.1708 232.092 64.3458 233.68 66.4178 234.218C68.4899 234.756 70.4178 235.218 72.8518 232.423C75.2858 229.628 91.6368 205.689 91.6418 205.681C84.6858 215.046 76.8888 225.546 75.1628 227.892Z" fill="white"/>
<path fill-rule="evenodd" clip-rule="evenodd" d="M132.735 172.253C130.782 169.153 121.256 169.338 113.618 175.853C104.932 183.261 96.7314 191.733 96.7314 191.733C96.7314 191.733 97.8645 195.873 104.237 201.481C107.483 204.471 111.745 206.113 116.158 206.074C116.158 206.074 127.821 193.626 131.617 187.128C134.251 182.603 134.663 177.12 132.735 172.253Z" fill="#DEF1F8"/>
<path fill-rule="evenodd" clip-rule="evenodd" d="M104.242 201.479C107.488 204.469 111.75 206.111 116.162 206.072C116.162 206.072 127.824 193.624 131.621 187.125C132.925 184.912 133.699 182.427 133.883 179.865L133.872 179.811C130.762 186.978 115.872 203.533 96.7354 191.731C96.7352 191.731 97.8683 195.871 104.242 201.479Z" fill="#CCE4EA"/>
<path fill-rule="evenodd" clip-rule="evenodd" d="M129.307 171.722C124.544 171.478 119.837 172.84 115.941 175.589C112.305 178.167 109.602 181.165 115.941 181.574C122.28 181.983 128.605 177.321 130.202 175.589C131.718 173.949 132.682 172.003 129.307 171.722Z" fill="#E9F6FB"/>
<path fill-rule="evenodd" clip-rule="evenodd" d="M126.445 172.572C122.634 172.994 119.912 174.237 118.398 175.797C116.884 177.357 125.688 176.241 128.429 175.066C131.802 173.621 130.674 172.103 126.445 172.572Z" fill="#EFF8FC"/>
<path fill-rule="evenodd" clip-rule="evenodd" d="M161.022 172.314C161.022 172.314 164.346 172.075 165.898 174.202C167.224 176.02 167.938 179.365 166.641 183.474C165.221 187.974 163.255 188.04 162.841 187.958C162.427 187.876 162.887 183.358 161.299 181.746C159.711 180.134 157.638 177.98 157.638 177.98C157.638 177.98 159.201 173.302 161.022 172.314Z" fill="#DEF1F8"/>
<path fill-rule="evenodd" clip-rule="evenodd" d="M166.543 175.363C166.368 174.954 166.151 174.565 165.896 174.201C164.344 172.074 161.02 172.313 161.02 172.313C159.199 173.301 157.638 177.979 157.638 177.979C157.638 177.979 159.712 180.136 161.299 181.745C162.156 182.615 162.416 184.331 162.539 185.739C162.883 182.858 162.239 180.908 161.476 178.213C161.112 176.888 161.752 175.492 162.994 174.903C164.18 174.46 165.509 174.632 166.542 175.363H166.543Z" fill="#CCE4EA"/>
<path fill-rule="evenodd" clip-rule="evenodd" d="M165.316 176.578C163.899 175.74 163.303 178.047 163.801 180.578C164.074 182.506 164.048 184.466 163.721 186.386C163.677 187.086 164.955 186.124 165.867 183.486C166.779 180.848 167.038 177.596 165.316 176.578Z" fill="#E9F6FB"/>
<path fill-rule="evenodd" clip-rule="evenodd" d="M148.07 164.932C146.148 167.353 144.025 169.608 141.725 171.673C141.724 171.673 145.575 180.166 153.364 181.746C153.364 181.746 158.82 178.201 161.063 172.723C161.063 172.723 160.125 169.528 155.046 166.707C149.967 163.886 148.07 164.932 148.07 164.932Z" fill="#F8C6A3"/>
<path fill-rule="evenodd" clip-rule="evenodd" d="M155.041 166.706C149.963 163.885 148.07 164.931 148.07 164.931C148.07 164.931 147.77 165.342 147.084 166.146L146.652 166.646C146.652 166.646 147.842 170.546 152.928 173.413C154.934 174.57 157.135 175.35 159.422 175.713C160.068 174.776 160.617 173.775 161.06 172.726C161.06 172.726 160.119 169.527 155.041 166.706Z" fill="#F2A37C"/>
<path fill-rule="evenodd" clip-rule="evenodd" d="M155.042 166.706C149.964 163.885 148.071 164.931 148.071 164.931C148.071 164.931 147.885 165.181 147.516 165.631C151.579 170.1 156.881 171.631 161.06 172.722C161.06 172.722 160.121 169.527 155.042 166.706Z" fill="#DD8964"/>
<path fill-rule="evenodd" clip-rule="evenodd" d="M153.118 190.927C152.989 193.059 152.318 198.87 145.691 199.411C139.064 199.952 134.473 199.201 124.337 190.927C114.201 182.653 108.93 178.576 99.6035 180.141C96.4945 180.896 85.9525 190.49 85.8185 192.924C85.6845 195.358 97.7114 206.303 98.9275 207.25C100.144 208.197 107.193 206.367 114.516 209.441C120.871 212.108 126.916 218.332 140.896 216.17C154.877 214.008 161.204 199.47 159.19 190.928C159.192 190.927 157.437 188.789 153.118 190.927Z" fill="#EA4D5F"/>
<path fill-rule="evenodd" clip-rule="evenodd" d="M118.392 186.197C116.48 184.706 114.453 183.368 112.33 182.197C106.049 189.144 98.3995 194.718 89.8623 198.569C92.4443 201.326 95.6383 204.326 97.4943 205.999C107.293 200.407 115.508 190.69 118.392 186.197Z" fill="#EFF8FC"/>
<path fill-rule="evenodd" clip-rule="evenodd" d="M127.721 215.585C130.503 216.358 133.387 216.698 136.273 216.595C137.861 210.807 138.241 204.753 137.389 198.811C135.881 198.355 134.425 197.744 133.044 196.986C132.73 203.514 130.908 209.88 127.721 215.585Z" fill="#EFF8FC"/>
<path fill-rule="evenodd" clip-rule="evenodd" d="M147.151 214.182C149.045 213.232 150.786 212.004 152.317 210.539C151.401 206.434 149.642 202.563 147.153 199.173C146.673 199.289 146.184 199.368 145.692 199.41C144.609 199.498 143.583 199.546 142.576 199.538C145.666 203.785 147.274 208.931 147.151 214.182Z" fill="#EFF8FC"/>
<path fill-rule="evenodd" clip-rule="evenodd" d="M119.182 211.826C124.251 205.602 126.808 198.152 127.97 193.742C126.838 192.916 125.634 191.985 124.337 190.926C123.895 190.564 123.472 190.226 123.048 189.876C119.696 198.297 113.732 204.676 109.985 208.087C111.538 208.38 113.057 208.833 114.516 209.439C116.112 210.152 117.67 210.949 119.182 211.826H119.182Z" fill="#EFF8FC"/>
<path fill-rule="evenodd" clip-rule="evenodd" d="M152.633 193.852C152.262 195.207 151.537 196.439 150.533 197.422C153.285 198.772 155.668 200.768 157.48 203.24C158.167 201.74 158.695 200.173 159.055 198.564C157.246 196.585 155.064 194.984 152.633 193.852Z" fill="#EFF8FC"/>
<g style="mix-blend-mode:multiply" opacity="0.2">
<path fill-rule="evenodd" clip-rule="evenodd" d="M153.119 190.926C153.078 193.124 152.324 195.25 150.972 196.983V196.983C152.379 195.694 153.381 194.023 153.856 192.174C153.856 192.174 158.039 193.506 159.192 190.923L156.121 190.004C155.072 190.123 154.054 190.435 153.119 190.926Z" fill="#242357"/>
</g>
<path fill-rule="evenodd" clip-rule="evenodd" d="M153.107 178.435C154.412 177.89 158.033 177.235 159.771 179.049C161.509 180.863 161.909 183.032 161.022 186.219C160.614 187.86 159.999 189.442 159.192 190.927C157.315 192.024 154.994 192.024 153.118 190.927C150.535 188.627 149.057 185.334 149.056 181.876C150.062 180.377 151.464 179.186 153.107 178.435Z" fill="#EA4D5F"/>
<path fill-rule="evenodd" clip-rule="evenodd" d="M159.584 190.173C157.051 186.753 153.357 184.374 149.194 183.483C149.342 184.516 149.613 185.527 150.002 186.495C152.817 187.638 155.346 189.386 157.41 191.614C158.041 191.498 158.645 191.264 159.19 190.926C159.19 190.926 159.346 190.669 159.584 190.173Z" fill="#EFF8FC"/>
<path fill-rule="evenodd" clip-rule="evenodd" d="M154.117 178.12C153.773 178.198 153.435 178.303 153.107 178.434C152.257 178.842 151.462 179.357 150.742 179.965C154.742 180.893 158.345 183.063 161.035 186.165C161.39 185.009 161.529 183.798 161.446 182.591C159.402 180.528 156.887 178.993 154.117 178.12Z" fill="#EFF8FC"/>
<g style="mix-blend-mode:multiply" opacity="0.2">
<path fill-rule="evenodd" clip-rule="evenodd" d="M152.122 186.146C151.452 182.276 152.835 178.731 154.746 177.994C154.185 178.082 153.635 178.23 153.107 178.435C151.464 179.186 150.062 180.377 149.056 181.876C149.057 185.333 150.534 188.626 153.116 190.926C154.035 191.419 155.055 191.693 156.097 191.727C154.337 191.057 152.732 189.669 152.122 186.146Z" fill="#242357"/>
</g>
<g style="mix-blend-mode:multiply" opacity="0.2">
<path fill-rule="evenodd" clip-rule="evenodd" d="M139.917 213.571C127.717 213.304 123.93 208.971 114.467 204.756C109.884 202.716 102.391 203.195 100.543 202.348C98.2434 201.293 88.8045 193.211 88.5094 192.354C87.9944 190.854 94.4035 183.474 94.4035 183.474C90.4135 186.714 85.9085 191.338 85.8214 192.923C85.6864 195.355 97.7144 206.302 98.9305 207.249C100.147 208.196 107.195 206.366 114.518 209.44C120.873 212.107 126.918 218.331 140.899 216.169C146.73 215.265 151.927 211.991 155.259 207.122C152.307 210.547 148.482 213.759 139.917 213.571Z" fill="#242357"/>
</g>
<path opacity="0.15" fill-rule="evenodd" clip-rule="evenodd" d="M108.684 182.003C106.046 181.201 103.27 180.952 100.531 181.272C98.9429 181.56 96.0909 184.212 94.3739 186.326C91.4009 189.984 98.7818 186.116 109.146 190.436C119.51 194.756 132.851 201.75 135.51 200.891C138.169 200.032 130.405 197.196 124.31 192.291C119.242 188.197 113.022 183.323 108.684 182.003Z" fill="white"/>
<path opacity="0.15" fill-rule="evenodd" clip-rule="evenodd" d="M159.192 179.454C157.417 178.289 156.673 181.425 156.852 184.795C157.031 188.165 157.421 190.809 158.389 190.395C159.357 189.981 160.933 185.81 160.817 183.485C160.701 181.16 160.079 180.038 159.192 179.454Z" fill="white"/>
<path fill-rule="evenodd" clip-rule="evenodd" d="M146.378 166.958C145.352 166.135 144.014 165.81 142.725 166.071C140.268 166.388 133.215 171.301 132.74 172.253C132.265 173.205 132.398 177.306 137.34 183.031C140.091 186.221 144.79 188.183 146.058 188.579C147.326 188.975 146.586 181.479 153.112 178.435C153.112 178.435 153.461 177.019 150.312 175.67C148.012 174.688 144.754 171.67 144.596 168.883L146.378 166.958Z" fill="#DEF1F8"/>
<path fill-rule="evenodd" clip-rule="evenodd" d="M144.587 168.883L146.378 166.958C145.352 166.135 144.014 165.81 142.725 166.071C140.268 166.388 133.215 171.301 132.74 172.253C132.265 173.205 132.398 177.306 137.34 183.031C134.589 179.098 134.949 173.345 137.122 171.673C139.295 170.001 142.473 167.441 143.564 170.226C144.655 173.011 149.064 174.992 149.064 174.993C146.978 173.656 144.718 171.199 144.587 168.883Z" fill="#CCE4EA"/>
<path fill-rule="evenodd" clip-rule="evenodd" d="M149.425 177.033C150.557 176.399 153.238 177.176 151.267 178.482C148.332 180.428 146.473 185.371 146.127 186.371C145.781 187.371 143.448 186.489 141.572 185.31C139.696 184.131 138.23 182.868 137.831 181.599C137.659 181.049 141.805 183.785 144.225 181.746C146.645 179.707 147.149 178.309 149.425 177.033Z" fill="#E9F6FB"/>
<path fill-rule="evenodd" clip-rule="evenodd" d="M133.064 153.086C132.014 157.655 133.743 160.434 134.916 161.607C136.089 162.78 138.498 163.521 139.3 160.989C140.213 163.031 142.017 164.537 144.188 165.071C147.832 165.936 149.056 163.336 149.056 163.336L143.19 154.322L133.064 153.086Z" fill="#D65132"/>
<path fill-rule="evenodd" clip-rule="evenodd" d="M133.065 153.086C132.782 154.264 132.687 155.479 132.782 156.686C134.988 158.718 138.224 159.165 140.899 157.809C140.899 157.809 142.58 163.334 147.571 164.779C148.198 164.454 148.715 163.952 149.057 163.334L143.191 154.32L133.065 153.086Z" fill="#BA422B"/>
<path fill-rule="evenodd" clip-rule="evenodd" d="M173.012 118.057C180.941 118.057 190.658 123.641 192.892 132.357C195.126 141.073 194.455 148.328 195.572 153.357C196.272 156.498 196.791 160.341 195.344 163.688C195.078 164.305 194.773 164.905 194.43 165.483C192.06 169.483 187.58 172.341 181.279 173.824C174.029 175.357 166.492 174.781 159.558 172.165C150.958 168.591 145.202 164.637 141.516 155.032C137.394 143.818 141.449 131.238 151.344 124.542C162.402 117.051 173.012 118.057 173.012 118.057Z" fill="#F8C6A3"/>
<path fill-rule="evenodd" clip-rule="evenodd" d="M143.326 145.371C143.494 146.895 144.886 148.339 147.582 147.344C150.278 146.349 155.308 141.714 156.282 129.438L143.326 145.371Z" fill="#F2A37C"/>
<path fill-rule="evenodd" clip-rule="evenodd" d="M173.012 118.057C169.622 117.902 166.23 118.295 162.967 119.222C159.74 121.222 156.852 122.922 156.852 122.922C160.599 130.98 168.726 135.937 173.874 137.047C179.021 138.157 185.188 138.147 187.474 134.995C189.619 132.036 186.333 128.987 186.333 128.987C188.175 130.231 190.304 130.984 192.519 131.176C189.749 123.145 180.578 118.057 173.012 118.057Z" fill="#F2A37C"/>
<circle opacity="0.5" cx="157.529" cy="154.377" r="8.771" fill="#EE9681"/>
<path opacity="0.5" fill-rule="evenodd" clip-rule="evenodd" d="M187.494 154.615C187.494 159.146 190.948 162.931 195.461 163.346C196.738 160.078 196.246 156.388 195.571 153.346C195.127 150.913 194.859 148.45 194.771 145.978C190.567 146.703 187.495 150.349 187.494 154.615H187.494Z" fill="#EE9681"/>
<path fill-rule="evenodd" clip-rule="evenodd" d="M195.247 151.515C193.898 152.556 192.243 153.122 190.539 153.128C186.057 153.128 182.407 149.228 182.31 144.398C182.216 144.364 182.125 144.322 182.037 144.274C181.807 144.14 181.583 143.996 181.36 143.853C181.36 143.97 181.343 144.085 181.343 144.203C181.343 144.261 181.351 144.318 181.352 144.375C181.034 144.245 180.69 144.186 180.346 144.203C179.469 144.182 178.601 144.394 177.832 144.819C177.843 144.619 177.864 144.412 177.864 144.203V144.172C177.726 144.3 177.597 144.438 177.479 144.585C177.325 144.798 177.111 144.962 176.864 145.055C176.402 150.57 171.675 154.741 166.145 154.513C160.615 154.285 156.248 149.738 156.243 144.203C156.242 143.917 156.261 143.634 156.285 143.353C156.156 143.293 156.034 143.219 155.922 143.131L155.392 142.72C155.372 142.876 155.358 143.033 155.342 143.19L140.613 140.99L141.384 145.236L155.374 145.571C156.039 151.035 160.549 155.222 166.048 155.479C171.546 155.736 176.428 151.988 177.599 146.61C178.463 146.171 179.419 145.942 180.388 145.943C180.776 145.934 181.161 146 181.524 146.135C182.223 150.61 186.013 153.951 190.54 154.085C192.281 154.081 193.98 153.554 195.416 152.571L195.247 151.515Z" fill="#F2A37C"/>
<path fill-rule="evenodd" clip-rule="evenodd" d="M195.248 151.515C193.898 152.555 192.244 153.122 190.54 153.128C189.58 153.125 188.63 152.941 187.74 152.585C187.664 152.902 187.606 153.223 187.566 153.547C188.518 153.901 189.525 154.083 190.541 154.085C192.281 154.081 193.98 153.554 195.417 152.571L195.303 151.864C195.292 151.786 195.277 151.711 195.266 151.632L195.248 151.515Z" fill="#EB7C74"/>
<path opacity="0.3" fill-rule="evenodd" clip-rule="evenodd" d="M195.03 155.278C195.641 159.836 195.4 163.903 190.821 168.055C185.466 172.91 175.666 174.828 169.232 174.443C173.255 174.885 177.324 174.674 181.279 173.817C187.579 172.334 192.059 169.472 194.43 165.476C194.773 164.898 195.078 164.298 195.344 163.681C196.791 160.333 196.27 156.491 195.572 153.35C195.182 151.312 194.94 149.248 194.849 147.175L194.694 147.064C194.939 148.454 194.417 150.72 195.03 155.278Z" fill="white"/>
<path fill-rule="evenodd" clip-rule="evenodd" d="M166.223 155.475C166.263 155.158 166.286 154.839 166.292 154.52C161.277 154.378 157.089 150.655 156.36 145.691C156.045 145.734 155.733 145.793 155.425 145.869C156.234 151.257 160.777 155.299 166.223 155.475Z" fill="#EB7C74"/>
<path opacity="0.3" fill-rule="evenodd" clip-rule="evenodd" d="M156.473 146.907C156.473 147.907 155.202 148.707 153.635 148.707C152.068 148.707 150.797 147.9 150.797 146.907C150.797 145.914 152.068 145.107 153.635 145.107C155.202 145.107 156.473 145.912 156.473 146.907Z" fill="white"/>
<g style="mix-blend-mode:multiply" opacity="0.7">
<path fill-rule="evenodd" clip-rule="evenodd" d="M165.899 152.287C170.356 152.287 174.835 148.998 175.514 142.654C176.193 136.31 171.555 130.202 163.778 132.512C156.001 134.822 155.829 144.074 158.178 147.672C159.817 150.405 162.715 152.137 165.899 152.287Z" fill="url(#paint1_linear)"/>
</g>
<g style="mix-blend-mode:multiply" opacity="0.7">
<path fill-rule="evenodd" clip-rule="evenodd" d="M192.91 132.448C191.104 131.868 189.16 131.876 187.359 132.471C180.219 134.586 180.064 143.082 182.221 146.383C183.725 148.893 186.386 150.483 189.309 150.619C191.387 150.614 193.39 149.843 194.936 148.454C194.603 144.03 194.48 138.602 192.91 132.448Z" fill="url(#paint2_linear)"/>
</g>
<path fill-rule="evenodd" clip-rule="evenodd" d="M140.613 140.113C142.061 141.527 143.013 143.371 143.327 145.371C143.621 147.435 146.919 148.256 151.373 141.976C157.529 133.298 156.852 122.923 156.852 122.923C160.884 127.184 165.623 130.715 170.859 133.361C179.014 137.291 183.828 136.24 186.186 135.243C188.544 134.246 190.214 131.396 188.052 127.859C188.052 127.859 192.08 131.003 199.841 130.708C207.602 130.413 210.746 126.68 208.584 123.831C206.422 120.982 202.272 118.752 196.266 116.94C196.266 116.94 203.181 116.366 202.789 112.535C202.397 108.704 192.617 99.35 173.946 101.935C152.967 104.835 149.803 115.56 149.803 115.56C149.803 115.56 146.917 113.878 140.613 113.927C136.162 113.962 133.232 115.746 132.937 116.752C132.642 117.758 133.286 118.339 135.317 119.116C136.887 119.683 138.423 120.341 139.917 121.085C136.253 122.248 132.872 124.16 129.988 126.7C124.978 131.022 125.041 134.984 125.567 135.541C126.554 136.587 129.134 134.124 132.867 133.632C132.867 133.632 130.282 139.455 130.967 144.464C131.652 149.473 140.613 140.113 140.613 140.113Z" fill="#E26644"/>
<path fill-rule="evenodd" clip-rule="evenodd" d="M162.117 115.832C159.717 116.246 158.009 118.239 161.302 119.416C164.595 120.593 175.017 124.969 179.934 128.954C185.148 133.181 189.259 134.004 187.975 129.937C186.15 125.14 182.69 121.141 178.204 118.648C173.317 115.909 167.643 114.916 162.117 115.832H162.117Z" fill="#EE7249"/>
<path fill-rule="evenodd" clip-rule="evenodd" d="M183.032 136.061C177.586 135.715 167.347 131.086 157.361 118.974C157.222 118.807 156.99 118.751 156.79 118.837C156.591 118.923 156.472 119.13 156.499 119.346C156.623 120.301 156.763 121.562 156.851 122.924C160.884 127.185 165.622 130.716 170.858 133.363C176.336 136.002 180.3 136.387 183.032 136.061Z" fill="#D65132"/>
<path fill-rule="evenodd" clip-rule="evenodd" d="M162.478 104.811C151.724 109.059 149.803 115.559 149.803 115.559C149.803 115.559 146.917 113.877 140.613 113.926C136.162 113.96 133.232 115.745 132.937 116.751C132.642 117.757 133.286 118.338 135.317 119.115C136.887 119.682 138.422 120.34 139.917 121.084C136.253 122.247 132.872 124.159 129.988 126.699C124.978 131.021 125.041 134.983 125.567 135.54C126.554 136.586 129.134 134.123 132.867 133.631C132.867 133.631 130.282 139.454 130.967 144.463C131.652 149.472 140.608 140.113 140.608 140.113C141.44 140.951 142.12 141.927 142.618 142.998C143.151 142.018 143.546 141.053 143.181 140.498C141.299 137.625 140.603 133.376 142.381 127.978C143.373 124.417 145.887 121.477 149.251 119.944C150.591 119.298 152.064 118.977 153.551 119.007C153.714 119.011 153.868 118.93 153.957 118.792C154.017 118.639 154.008 118.468 153.934 118.322C153.37 116.592 153.357 114.73 153.898 112.993C154.856 110.119 156.89 107.653 162.478 104.811Z" fill="#D65132"/>
<path fill-rule="evenodd" clip-rule="evenodd" d="M142.771 143.339C143.038 143.991 143.225 144.674 143.326 145.371C143.489 146.508 144.606 147.287 146.294 146.701C145.769 146.861 145.199 146.721 144.809 146.336C144.639 146.024 144.572 145.666 144.616 145.314L148.417 145.405H148.423C148.978 144.929 149.493 144.408 149.962 143.846L146.572 143.608L142.771 143.339Z" fill="#D65132"/>
<path fill-rule="evenodd" clip-rule="evenodd" d="M199.84 130.708C204.921 130.516 208.008 128.847 208.94 126.919C204.685 130.419 194.749 127.841 190.54 125.862C188.362 124.783 186.246 123.581 184.204 122.262C185.838 123.861 187.145 125.763 188.051 127.862C188.051 127.862 192.079 131.003 199.84 130.708Z" fill="#D65132"/>
<path fill-rule="evenodd" clip-rule="evenodd" d="M202.787 112.534C202.603 111.535 202.14 110.609 201.45 109.863C203.723 113.163 199.725 114.081 196.939 114.639C194.153 115.197 186.691 115.615 186.691 115.615C186.691 115.615 194.01 116.522 196.265 116.939C196.266 116.939 203.18 116.366 202.787 112.534Z" fill="#D65132"/>
<path fill-rule="evenodd" clip-rule="evenodd" d="M137.245 117.397C134.471 116.687 134.483 115.338 135.814 114.738C134.134 115.349 133.104 116.176 132.935 116.751C132.64 117.758 133.284 118.338 135.315 119.115C136.885 119.682 138.421 120.34 139.915 121.084C141.292 120.679 142.702 120.397 144.128 120.241C141.922 119.092 139.619 118.14 137.245 117.397Z" fill="#BA422B"/>
<path fill-rule="evenodd" clip-rule="evenodd" d="M128.981 132.44C126.681 133.566 125.35 134.193 125.536 133.085C125.221 133.875 125.232 134.758 125.567 135.539C126.555 136.585 129.134 134.122 132.868 133.63C133.397 132.231 134.141 130.923 135.073 129.752C132.993 130.533 130.96 131.431 128.981 132.44H128.981Z" fill="#BA422B"/>
<path fill-rule="evenodd" clip-rule="evenodd" d="M188.341 103.63C180.833 101.494 165.191 102.7 158.601 108.795C156.449 110.785 162.156 109.516 169.373 109.622C176.16 109.841 182.915 110.639 189.565 112.01C196.799 113.61 201.592 113.17 201.088 111.32C200.584 109.47 195.631 105.7 188.341 103.63Z" fill="#EE7249"/>
<path fill-rule="evenodd" clip-rule="evenodd" d="M208.43 126.152C209.038 124.619 205.857 121.297 201.125 119.463C196.393 117.629 189.566 116.363 188.042 116.94C186.35 117.584 191.535 124.682 199.198 126.964C205.843 128.942 207.913 127.448 208.43 126.152Z" fill="#EE7249"/>
<path fill-rule="evenodd" clip-rule="evenodd" d="M155.01 122.752C154.01 121.396 150.264 122.906 148.004 126.775C145.117 131.717 146.204 139.403 148.226 140.112C150.248 140.821 153.135 136.043 154.184 132.012C155.233 127.981 155.887 123.942 155.01 122.752Z" fill="#EE7249"/>
<path fill-rule="evenodd" clip-rule="evenodd" d="M136.582 115.192C135.56 115.509 136.31 116.714 138.068 116.747C139.843 116.781 146.601 116.401 146.512 115.767C146.423 115.133 141.031 113.809 136.582 115.192Z" fill="#E26644"/>
<path fill-rule="evenodd" clip-rule="evenodd" d="M126.679 132.44C126.937 132.752 128.338 132.263 129.647 130.978C130.956 129.693 134.752 125.335 135.074 124.778C135.396 124.221 132.393 125.256 129.647 127.861C126.901 130.466 126.403 132.107 126.679 132.44Z" fill="#E26644"/>
<path fill-rule="evenodd" clip-rule="evenodd" d="M194.677 118.313C197.508 119.013 204.101 120.278 207.9 124.951C206.192 123.477 204.261 122.284 202.18 121.414C199.737 120.245 197.232 119.21 194.677 118.313H194.677Z" fill="#F49A6E"/>
<path fill-rule="evenodd" clip-rule="evenodd" d="M167.639 104.811C170.955 103.484 183.662 102.79 189.763 104.811C196.973 107.198 199.363 110.281 199.363 110.281C195.353 108.348 191.086 107.001 186.694 106.281C188.915 106.371 191.124 106.661 193.294 107.148C193.294 107.148 189.194 104.548 181.008 104.148C176.541 103.862 172.056 104.084 167.639 104.811H167.639Z" fill="#F49A6E"/>
<path fill-rule="evenodd" clip-rule="evenodd" d="M177.231 118.795C181.168 120.303 186.062 125.59 187.29 129.232C185.996 127.14 184.47 125.201 182.741 123.452C181.025 121.763 179.183 120.207 177.231 118.795V118.795Z" fill="#F49A6E"/>
<path fill-rule="evenodd" clip-rule="evenodd" d="M154.657 124.408C154.709 126.316 153.921 134.138 149.802 139.071C149.358 137.218 149.358 135.285 149.802 133.432C149.868 134.611 150.026 135.784 150.273 136.939C150.272 136.939 153.162 133.33 154.657 124.408Z" fill="#F49A6E"/>
<g style="mix-blend-mode:multiply" opacity="0.5">
<path fill-rule="evenodd" clip-rule="evenodd" d="M169.319 131.427C169.189 130.209 166.606 129.037 162.925 131.104C159.244 133.171 157.951 136.404 158.21 137.369C158.469 138.334 161.81 136.929 164.152 136.013C168.092 134.469 169.705 135.044 169.319 131.427Z" fill="#F2A37C"/>
</g>
<g style="mix-blend-mode:multiply" opacity="0.5">
<path fill-rule="evenodd" clip-rule="evenodd" d="M194.007 138.012C193.844 136.883 193.642 135.723 193.392 134.532C192.561 133.358 191.468 132.393 190.201 131.713C186.518 129.645 185.138 131.435 185.122 132.661C185.086 135.432 187.522 135.823 189.822 136.613C191.733 137.268 193.318 138.176 194.007 138.012Z" fill="#F2A37C"/>
</g>
<path fill-rule="evenodd" clip-rule="evenodd" d="M169.762 129.974C169.595 128.48 166.605 127.707 162.923 129.774C159.241 131.841 157.949 135.074 158.208 136.04C158.467 137.006 161.808 135.599 164.15 134.683C168.092 133.14 170.109 133.082 169.762 129.974Z" fill="#D65132"/>
<path fill-rule="evenodd" clip-rule="evenodd" d="M165.548 132.44C162.148 133.546 160.248 134.003 160.406 132.764C160.564 131.525 162.395 130.053 162.923 129.774C159.241 131.842 157.949 135.074 158.208 136.04C158.467 137.006 161.808 135.599 164.15 134.683C168.092 133.14 170.109 133.083 169.762 129.974C169.587 130.762 168.95 131.334 165.548 132.44Z" fill="#BA422B"/>
<path fill-rule="evenodd" clip-rule="evenodd" d="M185.127 131.33C185.142 130.104 186.527 128.315 190.205 130.382C193.883 132.449 194.619 135.397 194.361 136.366C194.102 137.335 192.204 136.097 189.826 135.282C187.518 134.493 185.086 134.102 185.127 131.33Z" fill="#D65132"/>
<path fill-rule="evenodd" clip-rule="evenodd" d="M192.945 135.265C191.918 134.644 189.09 133.565 187.362 132.472C185.654 131.39 186.154 129.734 187.519 129.453C186.945 129.339 186.35 129.48 185.888 129.841C185.427 130.202 185.146 130.746 185.12 131.331C185.083 134.102 187.519 134.494 189.819 135.283C192.196 136.098 194.094 137.335 194.353 136.367C194.447 135.695 194.339 135.01 194.043 134.399C194.342 135.025 193.971 135.885 192.945 135.265Z" fill="#BA422B"/>
<path fill-rule="evenodd" clip-rule="evenodd" d="M190.54 153.208C185.469 153.208 181.34 148.774 181.34 143.324C181.34 137.874 185.465 133.44 190.54 133.44C195.615 133.44 199.74 137.874 199.74 143.324C199.74 148.774 195.611 153.208 190.54 153.208ZM190.54 134.398C185.998 134.398 182.301 138.398 182.301 143.324C182.301 148.25 186.001 152.25 190.54 152.25C195.079 152.25 198.779 148.25 198.779 143.324C198.779 138.398 195.083 134.398 190.54 134.398Z" fill="#19313A"/>
<ellipse cx="165.899" cy="145.169" rx="7.11961" ry="7.1196" fill="white"/>
<path opacity="0.2" fill-rule="evenodd" clip-rule="evenodd" d="M163.002 149.48C160.469 146.786 160.101 142.712 162.11 139.607L161.858 139.307C159.382 141.017 158.25 144.1 159.03 147.006C159.81 149.912 162.333 152.014 165.333 152.255C168.332 152.496 171.159 150.824 172.393 148.08C170.378 150.753 165.166 151.444 163.002 149.48Z" fill="#BAC4CA"/>
<path fill-rule="evenodd" clip-rule="evenodd" d="M158.877 146.337C158.877 146.337 159.107 141.293 163.162 139.631C167.728 137.76 171.662 140.211 172.471 142.45C172.551 141.815 172.39 141.172 172.02 140.65C170.848 138.85 167.963 136.631 163.397 138.156C159.892 139.17 157.87 142.83 158.877 146.337Z" fill="#19313A"/>
<path fill-rule="evenodd" clip-rule="evenodd" d="M173.017 145.169C173.018 144.475 172.917 143.784 172.717 143.12C172.396 142.031 171.552 141.175 170.467 140.84C169.099 140.394 167.598 140.698 166.511 141.64C164.397 143.666 163.911 146.862 165.327 149.425C165.836 150.16 166.553 150.725 167.386 151.049C168.611 151.476 169.972 151.162 170.886 150.242C172.251 148.907 173.02 147.078 173.017 145.169Z" fill="#19313A"/>
<path fill-rule="evenodd" clip-rule="evenodd" d="M166.542 150.603C166.805 150.784 167.087 150.934 167.384 151.05C168.609 151.477 169.97 151.163 170.884 150.243C171.513 149.623 172.022 148.892 172.384 148.086C170.903 149.746 168.765 150.667 166.542 150.603Z" fill="#002030"/>
<path fill-rule="evenodd" clip-rule="evenodd" d="M171.641 141.976C171.185 141.508 170.498 141.348 169.881 141.564C169.264 141.781 168.829 142.336 168.765 142.986C168.497 144.857 169.77 146.908 171.32 146.908C172.344 146.908 172.82 145.934 172.68 144.475C172.651 143.543 172.281 142.654 171.641 141.976Z" fill="white"/>
<path fill-rule="evenodd" clip-rule="evenodd" d="M182.168 144.492C182.131 144.195 181.985 143.922 181.758 143.727C181.351 143.427 180.85 143.284 180.347 143.327C179.415 143.299 178.494 143.538 177.694 144.015C177.354 144.217 177.124 144.562 177.069 144.953L176.894 146.165C177.913 145.439 179.137 145.054 180.389 145.065C182.046 145.065 182.397 145.978 182.397 145.978L182.168 144.492Z" fill="#19313A"/>
<path fill-rule="evenodd" clip-rule="evenodd" d="M180.347 143.324C179.415 143.296 178.494 143.534 177.693 144.012C177.354 144.214 177.125 144.559 177.069 144.95L176.894 146.162C177.913 145.436 179.137 145.051 180.389 145.062C182.046 145.062 182.397 145.975 182.397 145.975C181.807 144.152 179.091 144.808 178.983 144.357C178.875 143.906 179.316 143.412 180.347 143.324Z" fill="#002030"/>
<path fill-rule="evenodd" clip-rule="evenodd" d="M156.029 142.413L140.612 140.113L141.383 144.359L155.761 144.703C155.761 144.703 155.986 143.344 156.029 142.413Z" fill="#19313A"/>
<path fill-rule="evenodd" clip-rule="evenodd" d="M155.838 144.201L144.088 142.612C143.948 141.849 143.64 141.127 143.188 140.496L140.615 140.113L141.386 144.359L155.764 144.703C155.764 144.703 155.795 144.501 155.838 144.201Z" fill="#002030"/>
<path fill-rule="evenodd" clip-rule="evenodd" d="M179.194 147.473C178.432 147.834 177.71 150.33 178.362 152.473C178.827 154.125 180.331 155.268 182.048 155.273C183.802 155.333 184.756 154.313 184.71 153.024C184.673 151.897 183.319 151.876 182.048 150.324C180.87 148.895 180.621 146.798 179.194 147.473Z" fill="#EE9681"/>
<path fill-rule="evenodd" clip-rule="evenodd" d="M181.582 154.135C179.316 153.717 178.135 151.052 178.222 149.483C178.037 150.477 178.085 151.5 178.363 152.471C178.827 154.123 180.332 155.266 182.048 155.271C183.802 155.33 184.756 154.311 184.711 153.022C184.414 153.905 183.456 154.481 181.582 154.135Z" fill="#EB7C74"/>
<path fill-rule="evenodd" clip-rule="evenodd" d="M183.736 152.977C183.69 152.976 183.643 152.971 183.597 152.963C183.456 152.938 183.32 152.887 183.197 152.813C182.862 152.61 182.61 152.294 182.486 151.922C182.435 151.78 182.299 151.331 182.607 151.408C182.672 151.429 182.73 151.463 182.78 151.508C182.925 151.624 183.08 151.728 183.221 151.838C183.482 152.038 183.812 152.151 184.058 152.355C184.15 152.424 184.204 152.532 184.206 152.646C184.192 152.777 184.105 152.89 183.981 152.936C183.904 152.967 183.82 152.981 183.736 152.977Z" fill="#F8C6A3"/>
<path fill-rule="evenodd" clip-rule="evenodd" d="M166.573 154.615C160.337 154.615 155.282 149.56 155.282 143.324C155.282 137.088 160.337 132.033 166.573 132.033C172.809 132.033 177.864 137.088 177.864 143.324C177.859 149.559 172.806 154.611 166.572 154.615H166.573ZM166.573 132.99C162.393 132.99 158.625 135.507 157.025 139.369C155.425 143.23 156.309 147.675 159.265 150.631C162.22 153.587 166.665 154.471 170.527 152.872C174.388 151.272 176.906 147.504 176.906 143.324C176.9 137.619 172.277 132.996 166.572 132.99H166.573Z" fill="#19313A"/>
<path fill-rule="evenodd" clip-rule="evenodd" d="M176.1 161.494C173.281 161.106 170.563 160.182 168.092 158.771C165.718 157.517 163.902 157.335 163.482 159.171C162.873 161.82 165.47 168.571 174.182 169.88C179.758 170.718 183.808 169.092 186.063 167.263C187.206 166.375 188.062 165.169 188.524 163.797C189.024 162.197 188.396 160.284 184.467 161.043C181.717 161.621 178.896 161.773 176.1 161.494Z" fill="#C9434D"/>
<path fill-rule="evenodd" clip-rule="evenodd" d="M174.9 161.329C172.518 160.813 170.224 159.951 168.092 158.771C165.718 157.517 163.902 157.335 163.482 159.171C162.989 161.317 164.602 166.155 169.868 168.611C172.888 167.526 174.903 164.663 174.906 161.453C174.906 161.409 174.9 161.37 174.9 161.329Z" fill="#7C1423"/>
<path fill-rule="evenodd" clip-rule="evenodd" d="M183.033 161.293C180.74 161.656 178.411 161.723 176.102 161.493C173.532 161.157 171.046 160.351 168.769 159.115H168.769C168.82 160.081 169.06 161.028 169.476 161.902C170.14 162.883 173.319 164.102 175.112 164.357C178.612 164.857 181.363 163.964 181.667 163.626C182.183 162.886 182.64 162.106 183.033 161.293Z" fill="white"/>
<path opacity="0.2" fill-rule="evenodd" clip-rule="evenodd" d="M173.84 161.814C176.768 162.509 179.816 162.519 182.749 161.845C182.916 161.527 183.033 161.293 183.033 161.293C180.74 161.656 178.411 161.723 176.102 161.493C173.532 161.157 171.046 160.351 168.769 159.115H168.769C168.82 160.081 169.06 161.028 169.476 161.902C169.934 162.579 171.591 163.368 173.162 163.877C171.898 163.432 170.867 162.494 170.306 161.277C170.152 160.55 171.034 161.092 173.84 161.814Z" fill="#BAC4CA"/>
<path fill-rule="evenodd" clip-rule="evenodd" d="M179.727 169.908C178.974 168.279 174.51 164.108 165.527 165.246C167.716 167.841 170.817 169.497 174.19 169.875C176.024 170.165 177.891 170.176 179.727 169.908Z" fill="#EC6469"/>
<path fill-rule="evenodd" clip-rule="evenodd" d="M178.459 170.052C178.451 170.052 173.407 169.741 170.99 168.132C168.59 166.532 169.156 165.091 171.252 165.246C169.351 164.99 167.425 164.99 165.523 165.246C167.712 167.841 170.813 169.497 174.186 169.875C175.6 170.094 177.033 170.153 178.459 170.052Z" fill="#DB545B"/>
<path opacity="0.2" fill-rule="evenodd" clip-rule="evenodd" d="M175.623 166.975C174.304 166.237 172.832 165.816 171.322 165.748C169.238 165.959 173.413 167.634 175.229 168.294C177.557 169.141 177.829 168.12 175.623 166.975Z" fill="white"/>
<path opacity="0.2" fill-rule="evenodd" clip-rule="evenodd" d="M178.341 168.775C177.988 168.537 177.517 168.548 177.517 168.836C177.517 169.05 177.789 169.406 178.341 169.577C178.893 169.748 178.91 169.157 178.341 168.775Z" fill="white"/>
<path fill-rule="evenodd" clip-rule="evenodd" d="M193.767 148.607C195.32 146.907 195.206 141.136 193.014 139.433C190.356 137.398 186.563 137.836 184.44 140.425C182.317 143.013 182.629 146.819 185.146 149.027C187.662 151.234 191.476 151.049 193.767 148.607Z" fill="white"/>
<path opacity="0.2" fill-rule="evenodd" clip-rule="evenodd" d="M193.766 148.607C194.271 147.945 194.585 147.157 194.676 146.33C193.376 148.851 190.276 150.286 187.565 148.483C184.208 146.248 184.64 141.071 185.994 139.083C183.947 140.351 182.819 142.689 183.101 145.08C183.383 147.471 185.024 149.483 187.31 150.24C189.596 150.997 192.113 150.362 193.766 148.611V148.607Z" fill="#BAC4CA"/>
<path fill-rule="evenodd" clip-rule="evenodd" d="M183.177 145.654C183.177 145.654 182.991 141.002 186.731 139.469C188.741 138.577 191.05 138.66 192.99 139.694C193.473 139.975 193.859 140.397 194.096 140.904C194.045 140.032 193.617 139.226 192.924 138.695C191.619 137.717 189.701 137.159 186.948 138.104C181.425 140.007 183.177 145.654 183.177 145.654Z" fill="#19313A"/>
<path fill-rule="evenodd" clip-rule="evenodd" d="M193.145 140.568C191.975 140.22 190.708 140.489 189.779 141.282C187.936 143.05 187.512 145.837 188.748 148.072C189.565 149.303 191.041 149.923 192.491 149.645C193.622 149.222 194.454 148.246 194.691 147.062C195.238 145.309 195.135 143.417 194.402 141.733C194.166 141.185 193.71 140.762 193.145 140.568Z" fill="#19313A"/>
<path fill-rule="evenodd" clip-rule="evenodd" d="M194.692 147.063C194.827 146.609 194.92 146.143 194.97 145.672C194.252 147.77 192.313 149.207 190.097 149.282C190.827 149.681 191.674 149.81 192.49 149.646C193.621 149.224 194.454 148.247 194.692 147.063Z" fill="#002030"/>
<path fill-rule="evenodd" clip-rule="evenodd" d="M193.759 141.376C193.36 140.966 192.759 140.825 192.219 141.015C191.679 141.205 191.298 141.691 191.243 142.261C191.008 143.898 192.123 145.691 193.478 145.691C194.378 145.691 194.792 144.84 194.667 143.562C194.642 142.747 194.319 141.969 193.759 141.376Z" fill="white"/>
<path fill-rule="evenodd" clip-rule="evenodd" d="M140.61 140.114C138.696 138.953 134.01 138.154 130.948 141.155C127.886 144.156 128.108 152.407 133.669 155.188C136.722 156.865 140.488 156.522 143.188 154.322C143.876 148.491 143.901 142.263 140.61 140.114Z" fill="#F8C6A3"/>
<path fill-rule="evenodd" clip-rule="evenodd" d="M134.51 149.842C134.51 148.734 135.177 147.736 136.2 147.312C137.223 146.889 138.4 147.123 139.183 147.906C139.965 148.69 140.199 149.867 139.775 150.89C139.351 151.913 138.352 152.579 137.245 152.578C135.734 152.577 134.51 151.353 134.51 149.842Z" fill="#DD8964"/>
<path fill-rule="evenodd" clip-rule="evenodd" d="M137.246 152.573C139.829 152.553 141.811 149.727 141.392 146.332C140.898 142.332 137.638 141.627 135.627 141.739C133.522 141.824 131.828 143.498 131.718 145.602C132.497 143.869 134.46 143.006 136.264 143.602C139.615 144.496 138.532 149.502 137.414 149.839C136.296 150.176 137.246 152.573 137.246 152.573Z" fill="#DD8964"/>
<path fill-rule="evenodd" clip-rule="evenodd" d="M137.053 139.738C135.093 139.4 133.087 139.979 131.609 141.309C129.639 142.968 129.209 145.574 129.53 147.971C129.538 148.028 129.679 148.12 129.69 148.043C130.039 145.45 130.575 142.807 132.935 141.243C134.191 140.451 135.616 139.966 137.095 139.829C137.156 139.817 137.08 139.744 137.053 139.738Z" fill="#FDDEBC"/>
<path fill-rule="evenodd" clip-rule="evenodd" d="M144.146 155.201C143.78 154.238 143.372 152.578 143.372 152.578C142.508 153.361 141.503 153.972 140.41 154.378C137.433 155.475 134.117 155.139 131.42 153.468C132.058 154.174 132.821 154.757 133.67 155.187C136.144 156.533 139.12 156.587 141.641 155.33C145.331 164.707 151.052 168.623 159.557 172.158C161.775 173.047 164.085 173.687 166.444 174.067C156.175 172.212 147.676 165.021 144.146 155.201Z" fill="#F2A37C"/>
<path fill-rule="evenodd" clip-rule="evenodd" d="M172.626 171.026C171.033 170.623 169.506 169.994 168.092 169.157C168.092 169.157 169.047 171.057 172.471 171.843C176.293 172.721 178.226 171.496 178.226 171.496C176.346 171.615 174.459 171.457 172.626 171.026Z" fill="#F2A37C"/>
<path fill-rule="evenodd" clip-rule="evenodd" d="M100.544 234.389C100.488 238.14 99.1983 248.223 106.937 256.079C114.676 263.935 129.57 260.886 132.558 260.179C134.818 259.755 137.124 259.636 139.415 259.827C141.009 259.795 145.16 258.772 145.864 255.607C145.864 255.607 141.408 257.951 138.125 252.792C134.529 246.717 134.631 239.142 138.389 233.166C141.873 227.816 149.334 226.657 151.372 226.412C151.372 226.412 150.866 223.984 147.536 223.563C145.719 223.332 141.036 225.509 134.611 227.375C124.998 230.171 112.542 234.607 100.544 234.389Z" fill="#4477BB"/>
<path fill-rule="evenodd" clip-rule="evenodd" d="M139.966 225.975C136.514 227.461 132.493 233.268 131.573 238.575C132.865 234.946 134.943 231.647 137.657 228.914C139.586 226.968 143.098 225.322 143.485 224.995C143.896 224.651 142.276 224.98 139.966 225.975Z" fill="#71ABDE"/>
<path fill-rule="evenodd" clip-rule="evenodd" d="M132.559 260.183C134.819 259.759 137.125 259.64 139.416 259.831C141.01 259.799 145.161 258.776 145.865 255.611C143.725 256.603 141.194 256.16 139.518 254.5L137.835 255.278C137.835 255.278 136.648 257.723 133.942 254.694C130.236 250.544 130.955 241.556 130.955 241.556C129.104 252.249 133.722 256.522 133.139 256.831C132.556 257.14 122.32 259.77 115.229 255.362C108.138 250.954 109.774 237.783 113.639 236.062C117.559 234.319 122.039 232.9 128.806 229.118C120.25 231.698 110.249 234.565 100.545 234.389C100.489 238.14 99.1993 248.223 106.938 256.079C114.677 263.935 129.572 260.886 132.559 260.183Z" fill="#3E65AE"/>
<path fill-rule="evenodd" clip-rule="evenodd" d="M140.692 228.639C143.608 227.556 146.656 226.875 149.755 226.614C148.584 225.228 144.923 225.771 140.692 228.639Z" fill="#295296"/>
<path fill-rule="evenodd" clip-rule="evenodd" d="M151.373 226.416C154.279 225.977 165.42 225.524 171.273 228.872C177.406 232.383 178.181 236.972 177.703 241.988C177.226 247.004 145.868 255.611 145.868 255.611C145.868 255.611 144.859 257.728 141.169 256.978C137.478 256.228 134.819 252.813 133.998 245.848C133.178 238.883 136.456 231.509 140.691 228.641C143.402 226.976 146.591 226.263 149.753 226.616L151.373 226.416Z" fill="#F8C6A3"/>
<path fill-rule="evenodd" clip-rule="evenodd" d="M155.268 240.635C155.268 240.635 151.207 241.554 145.14 246.725C140.169 250.962 137.484 251.747 135.708 246.972C133.932 242.197 135.545 234.701 138.497 230.625C135.03 234.897 133.41 240.376 133.997 245.847C134.817 252.812 137.48 256.226 141.167 256.977C144.854 257.728 145.867 255.61 145.867 255.61C145.867 255.61 149.72 244.343 155.268 240.635Z" fill="#F2A37C"/>
<path fill-rule="evenodd" clip-rule="evenodd" d="M145.864 255.611C144.347 256.223 142.772 256.681 141.164 256.978C144.855 257.728 145.864 255.611 145.864 255.611Z" fill="#295296"/>
<path fill-rule="evenodd" clip-rule="evenodd" d="M177.699 241.985C177.241 248.412 170.461 272.351 168.979 278.528C167.687 283.913 166.88 287.172 166.88 287.172C158.628 293.704 150.438 297.123 142.312 297.256C142.312 297.256 142.713 283.891 142.713 276.371C142.713 268.851 142.977 262.322 145.55 254.803C146.331 252.519 150.085 243.856 155.272 240.632C162.182 236.339 168.998 240.41 177.699 241.985Z" fill="#F8C6A3"/>
<path fill-rule="evenodd" clip-rule="evenodd" d="M155.557 276.827C149.568 277.632 148.016 276.827 146.745 270.396C145.474 263.965 147.026 251.34 148.905 247.828C147.57 250.044 146.446 252.381 145.546 254.807C142.974 262.326 142.709 268.856 142.709 276.375C142.709 280.433 142.594 286.19 142.488 290.634L148.088 289.856L166.594 285.174C166.594 285.174 167.032 284.798 167.608 284.224C167.959 282.783 168.426 280.857 168.983 278.532C169.021 278.372 169.066 278.189 169.111 278.001C166.348 276.537 161.002 276.095 155.557 276.827Z" fill="#F2A37C"/>
<path fill-rule="evenodd" clip-rule="evenodd" d="M172 244.876C170.387 244.386 168.933 243.478 167.785 242.244C166.585 240.858 166.071 239.029 165.406 239.397C164.077 240.134 164.741 245.457 167.476 247.249C169.177 248.541 171.455 248.781 173.387 247.871C174.348 247.385 175.529 245.836 172 244.876Z" fill="#F2A37C"/>
<path opacity="0.3" fill-rule="evenodd" clip-rule="evenodd" d="M177.699 241.988C178.177 236.969 177.399 232.382 171.269 228.872C167.991 226.996 163.052 226.314 158.832 226.154C163.48 226.554 173.539 229.536 175.699 236.119C176.248 237.788 176.199 240.558 175.768 244.776C174.758 254.705 171.601 268.476 171.598 268.487C174.11 258.99 177.385 246.387 177.699 241.988Z" fill="white"/>
<path fill-rule="evenodd" clip-rule="evenodd" d="M166.885 287.174C167.312 285.39 167.967 283.668 168.833 282.051C169.352 281.36 169.352 280.151 166.154 279.459C162.956 278.767 154.396 279.199 148.089 281.274C141.782 283.349 140.571 285.596 140.917 286.546C141.263 287.496 142.77 293.193 142.317 297.259C150.42 297.156 158.612 293.684 166.885 287.174Z" fill="#EFF8FC"/>
<path fill-rule="evenodd" clip-rule="evenodd" d="M168.268 283.124V283.117C168.268 283.117 161.931 281.681 153.013 283.953C143.852 286.286 141.561 288.985 141.561 288.985C141.76 289.894 141.971 290.971 142.129 292.113C143.252 291.222 146.265 289.313 153.013 287.591C157.585 286.376 162.344 286.025 167.046 286.556C167.379 285.387 167.787 284.241 168.268 283.124V283.124Z" fill="#4477BB"/>
<g style="mix-blend-mode:multiply" opacity="0.2">
<path fill-rule="evenodd" clip-rule="evenodd" d="M153.33 295.091C152.699 294.842 151.995 294.855 151.373 295.126C147.479 296.418 146.61 293.484 146.592 291.5C146.626 289.411 146.334 287.328 145.726 285.329C145.409 284.627 145.394 283.825 145.684 283.112C145.975 282.398 146.546 281.835 147.264 281.555C141.67 283.548 140.581 285.638 140.912 286.546C141.258 287.497 142.765 293.193 142.312 297.259C146.083 297.184 149.812 296.45 153.33 295.091Z" fill="#242357"/>
</g>
<path fill-rule="evenodd" clip-rule="evenodd" d="M149.639 294.046C147.839 295.32 143.7 295.446 142.232 292.923C142.232 292.923 141.573 293.317 140.86 295.377C140.147 297.437 139.293 302.289 140.86 304.905C143.867 303.371 147.057 302.226 150.353 301.497C155.584 300.388 162.797 296.504 165.253 294.84C167.709 293.176 178.014 287.23 185.701 290.956C185.701 290.956 183.086 286.835 176.033 286.914C168.98 286.993 166.882 287.176 166.882 287.176C166.882 287.176 157.556 287.541 153.206 289.53C150.432 290.796 151.541 292.698 149.639 294.046Z" fill="#4477BB"/>
<g style="mix-blend-mode:multiply" opacity="0.2">
<path fill-rule="evenodd" clip-rule="evenodd" d="M165.252 294.838C167.102 293.627 169.063 292.595 171.11 291.758C170.638 289.621 169.916 287.507 168.871 287.071C168.514 287.084 168.21 287.098 167.958 287.11H167.947C164.988 288.561 164.797 292.838 164.797 292.838C163.137 293.1 157.797 296.399 155.844 297.255C152.017 298.93 149.868 298.699 148.966 298.047C147.697 297.131 147.779 294.787 147.779 294.787C145.807 295.187 143.304 294.766 142.229 292.92C142.229 292.92 141.57 293.314 140.857 295.374C140.144 297.434 139.29 302.286 140.857 304.902C143.864 303.368 147.054 302.223 150.35 301.494C155.583 300.386 162.795 296.502 165.252 294.838Z" fill="#242357"/>
</g>
<path fill-rule="evenodd" clip-rule="evenodd" d="M185.691 290.945C178.413 287.43 168.798 292.563 165.714 294.536C165.858 294.436 164.622 290.246 167.945 287.114C171.268 283.982 183.791 284.222 185.691 290.945Z" fill="#EFF8FC"/>
<path fill-rule="evenodd" clip-rule="evenodd" d="M185.691 290.942C182.591 285.273 173.778 287.442 171.453 288.355C169.128 289.268 166.09 289.955 166.486 289.016C165.694 290.74 165.426 292.658 165.714 294.533C168.8 292.563 178.415 287.43 185.691 290.942Z" fill="#A9CBD3"/>
<path fill-rule="evenodd" clip-rule="evenodd" d="M185.693 290.946C184.441 289.535 182.699 288.654 180.82 288.48C176.154 288.015 171.474 289.21 167.603 291.857C163.715 294.399 159.603 296.582 155.319 298.378C151.302 300.124 142.919 300.765 140.375 303.95C140.375 303.95 139.695 305.073 139.889 308.077C139.84 310.641 141.485 312.932 143.93 313.704C146.704 314.813 154.789 315.367 164.854 312.04C174.919 308.713 181.554 308.229 185.698 302.291C189.301 297.126 187.03 292.498 185.693 290.946Z" fill="#DEF1F8"/>
<mask id="mask1" style="mask-type:alpha" maskUnits="userSpaceOnUse" x="139" y="288" width="49" height="27">
<path fill-rule="evenodd" clip-rule="evenodd" d="M185.693 290.946C184.441 289.535 182.699 288.654 180.82 288.48C176.154 288.015 171.474 289.21 167.603 291.857C163.715 294.399 159.603 296.582 155.319 298.378C151.302 300.124 142.919 300.765 140.375 303.95C140.375 303.95 139.695 305.073 139.889 308.077C139.84 310.641 141.485 312.932 143.93 313.704C146.704 314.813 154.789 315.367 164.854 312.04C174.919 308.713 181.554 308.229 185.698 302.291C189.301 297.126 187.03 292.498 185.693 290.946Z" fill="white"/>
</mask>
<g mask="url(#mask1)">
<path d="M188.601 294.537C186.88 291.155 181.401 288.359 173.782 290.792C166.005 293.275 164.646 296.605 156.363 299.737C148.08 302.869 140.905 301.875 138.735 308.937" stroke="#4477BB"/>
</g>
<path fill-rule="evenodd" clip-rule="evenodd" d="M180.588 291.506C175.19 291.428 169.919 293.149 165.606 296.397C161.834 299.132 157.6 301.165 153.106 302.397C149.197 303.519 147.077 303.386 143.235 305.14C141.202 305.885 139.961 307.946 140.253 310.092C140.83 311.815 142.197 313.159 143.93 313.706C146.704 314.815 154.789 315.369 164.854 312.042C174.919 308.715 181.554 308.231 185.698 302.293C187.316 300.144 187.953 297.414 187.453 294.771C186.637 293.129 185.525 291.622 180.588 291.506Z" fill="#E8914F"/>
<path fill-rule="evenodd" clip-rule="evenodd" d="M150.278 313.124C148.311 313.221 146.343 312.965 144.466 312.367C143.169 311.984 142.127 311.013 141.654 309.745C141.546 308.278 142.441 306.923 143.832 306.445C145.683 305.614 147.632 305.024 149.632 304.688C150.746 304.462 152.008 304.205 153.499 303.777C158.157 302.504 162.546 300.397 166.452 297.558C170.374 294.602 175.141 292.983 180.052 292.939C180.216 292.939 180.381 292.939 180.545 292.945C184.745 293.045 185.531 294.175 186.074 295.234C186.426 297.438 185.862 299.691 184.514 301.47C181.623 305.615 177.358 306.843 170.902 308.703C168.958 309.262 166.754 309.897 164.402 310.677C159.853 312.237 155.085 313.064 150.276 313.128L150.278 313.124Z" fill="#D1783B"/>
<mask id="mask2" style="mask-type:alpha" maskUnits="userSpaceOnUse" x="141" y="292" width="46" height="22">
<path fill-rule="evenodd" clip-rule="evenodd" d="M150.278 313.124C148.311 313.221 146.343 312.965 144.466 312.367C143.169 311.984 142.127 311.013 141.654 309.745C141.546 308.278 142.441 306.923 143.832 306.445C145.683 305.614 147.632 305.024 149.632 304.688C150.746 304.462 152.008 304.205 153.499 303.777C158.157 302.504 162.546 300.397 166.452 297.558C170.374 294.602 175.141 292.983 180.052 292.939C180.216 292.939 180.381 292.939 180.545 292.945C184.745 293.045 185.531 294.175 186.074 295.234C186.426 297.438 185.862 299.691 184.514 301.47C181.623 305.615 177.358 306.843 170.902 308.703C168.958 309.262 166.754 309.897 164.402 310.677C159.853 312.237 155.085 313.064 150.276 313.128L150.278 313.124Z" fill="white"/>
</mask>
<g mask="url(#mask2)">
<path fill-rule="evenodd" clip-rule="evenodd" d="M182.831 305.132L184.409 293.165L185.359 293.29L183.781 305.257L182.831 305.132Z" fill="#C66D32"/>
<path fill-rule="evenodd" clip-rule="evenodd" d="M178.764 307.49L180.76 292.344L181.71 292.469L179.713 307.615L178.764 307.49Z" fill="#C66D32"/>
<path fill-rule="evenodd" clip-rule="evenodd" d="M174.844 308.853L176.878 293.192L177.828 293.315L175.794 308.976L174.844 308.853Z" fill="#C66D32"/>
<path fill-rule="evenodd" clip-rule="evenodd" d="M170.903 310.035L173.129 293.688L174.077 293.817L171.852 310.164L170.903 310.035Z" fill="#C66D32"/>
<path fill-rule="evenodd" clip-rule="evenodd" d="M167 311.286L168.981 295.813L169.931 295.934L167.95 311.408L167 311.286Z" fill="#C66D32"/>
<path fill-rule="evenodd" clip-rule="evenodd" d="M163.154 311.841L164.949 298.24L165.899 298.365L164.104 311.966L163.154 311.841Z" fill="#C66D32"/>
<path fill-rule="evenodd" clip-rule="evenodd" d="M159.271 312.925L160.848 300.958L161.798 301.084L160.22 313.05L159.271 312.925Z" fill="#C66D32"/>
<path fill-rule="evenodd" clip-rule="evenodd" d="M155.32 314.055L156.898 302.087L157.848 302.213L156.27 314.18L155.32 314.055Z" fill="#C66D32"/>
<path fill-rule="evenodd" clip-rule="evenodd" d="M151.581 314.171L152.981 303.549L153.931 303.674L152.531 314.296L151.581 314.171Z" fill="#C66D32"/>
<path fill-rule="evenodd" clip-rule="evenodd" d="M147.828 313.983L149.075 304.527L150.025 304.652L148.778 314.108L147.828 313.983Z" fill="#C66D32"/>
<path fill-rule="evenodd" clip-rule="evenodd" d="M144.165 313.047L145.168 305.448L146.117 305.573L145.115 313.172L144.165 313.047Z" fill="#C66D32"/>
<path fill-rule="evenodd" clip-rule="evenodd" d="M141.944 307.796L142.318 306.915L157.555 313.371L157.182 314.253L141.944 307.796Z" fill="#C66D32"/>
<path fill-rule="evenodd" clip-rule="evenodd" d="M147.454 305.437L147.824 304.554L164.718 311.619L164.349 312.502L147.454 305.437Z" fill="#C66D32"/>
<path fill-rule="evenodd" clip-rule="evenodd" d="M155.035 303.506L155.417 302.628L171.571 309.66L171.189 310.538L155.035 303.506Z" fill="#C66D32"/>
<path fill-rule="evenodd" clip-rule="evenodd" d="M160.534 301.136L160.908 300.255L177.988 307.514L177.614 308.395L160.534 301.136Z" fill="#C66D32"/>
<path fill-rule="evenodd" clip-rule="evenodd" d="M165.533 298.17L165.917 297.293L182.965 304.757L182.581 305.634L165.533 298.17Z" fill="#C66D32"/>
<path fill-rule="evenodd" clip-rule="evenodd" d="M170.066 295.568L170.439 294.685L186.542 301.484L186.169 302.367L170.066 295.568Z" fill="#C66D32"/>
<path fill-rule="evenodd" clip-rule="evenodd" d="M176.462 293.374L176.835 292.492L187.779 297.114L187.406 297.996L176.462 293.374Z" fill="#C66D32"/>
</g>
<path fill-rule="evenodd" clip-rule="evenodd" d="M186.083 295.23C186.038 295.143 185.99 295.055 185.94 294.968C185.913 296.744 185.33 298.467 184.274 299.896C181.384 304.041 177.119 305.27 170.662 307.129C168.718 307.689 166.514 308.323 164.162 309.103C159.613 310.663 154.845 311.491 150.036 311.554C148.069 311.652 146.1 311.395 144.224 310.797C143.171 310.459 142.276 309.753 141.701 308.809C141.633 309.117 141.62 309.434 141.662 309.746C142.135 311.014 143.176 311.985 144.474 312.368C146.351 312.966 148.319 313.222 150.286 313.125C155.095 313.061 159.863 312.234 164.412 310.674C166.769 309.894 168.972 309.26 170.912 308.7C177.368 306.84 181.633 305.611 184.524 301.467C185.872 299.687 186.435 297.435 186.083 295.23Z" fill="#C66D32"/>
<path d="M184.448 292.935L182.448 304.903" stroke="#E8914F"/>
<path d="M180.382 292.115L178.382 307.262" stroke="#E8914F"/>
<path d="M176.498 292.963L174.449 308.622" stroke="#E8914F"/>
<path d="M172.738 293.46L170.519 309.808" stroke="#E8914F"/>
<path d="M168.615 295.584L166.615 311.056" stroke="#E8914F"/>
<path d="M164.772 298.012L162.772 311.614" stroke="#E8914F"/>
<path d="M160.888 300.729L158.888 312.697" stroke="#E8914F"/>
<path d="M156.938 301.858L154.938 313.826" stroke="#E8914F"/>
<path d="M153.197 303.32L151.197 313.943" stroke="#E8914F"/>
<path d="M149.444 304.298L147.444 313.755" stroke="#E8914F"/>
<path d="M145.781 305.218L143.781 312.818" stroke="#E8914F"/>
<path d="M141.269 307.064L156.507 313.521" stroke="#E8914F"/>
<path d="M146.776 304.705L163.664 311.765" stroke="#E8914F"/>
<path d="M154.363 302.776L170.518 309.808" stroke="#E8914F"/>
<path d="M159.859 300.404L176.943 307.67" stroke="#E8914F"/>
<path d="M164.864 297.44L181.912 304.903" stroke="#E8914F"/>
<path d="M169.391 294.835L185.494 301.634" stroke="#E8914F"/>
<path d="M175.786 292.641L186.735 297.258" stroke="#E8914F"/>
<circle cx="306.154" cy="119.761" r="25.1691" fill="#7A60A6"/>
<path fill-rule="evenodd" clip-rule="evenodd" d="M330.645 113.983C329.255 108.071 325.764 102.866 320.823 99.3359C320.999 99.9259 324.399 111.859 314.723 123.914C305.023 136.002 287.348 135.523 286.561 135.495C293.915 144.659 306.637 147.507 317.197 142.354C327.757 137.2 333.339 125.419 330.64 113.983H330.645Z" fill="#6D5298"/>
<path fill-rule="evenodd" clip-rule="evenodd" d="M328.766 114.004C331.097 123.903 326.761 134.173 318.041 139.406C309.321 144.638 298.218 143.633 290.58 136.918C299.839 141.6 311.033 140.023 318.638 132.965C326.242 125.907 328.647 114.86 324.666 105.279C326.627 107.869 328.023 110.841 328.766 114.004H328.766Z" fill="#5F4589"/>
<path opacity="0.25" fill-rule="evenodd" clip-rule="evenodd" d="M284.419 117.362C283.419 113.115 286.052 108.862 290.299 107.862C294.546 106.863 298.799 109.495 299.799 113.742C300.798 117.989 298.166 122.242 293.919 123.242C291.879 123.722 289.733 123.372 287.951 122.269C286.17 121.167 284.899 119.401 284.419 117.362Z" fill="#F298BB"/>
<path opacity="0.25" fill-rule="evenodd" clip-rule="evenodd" d="M286.203 114.666C285.781 112.873 286.481 111.002 287.976 109.926C289.471 108.85 291.467 108.78 293.033 109.75C294.599 110.719 295.427 112.536 295.131 114.354C294.835 116.172 293.473 117.633 291.68 118.055C289.232 118.63 286.78 117.114 286.203 114.666Z" fill="#F298BB"/>
<path opacity="0.25" fill-rule="evenodd" clip-rule="evenodd" d="M303.914 107.62C302.915 103.373 305.547 99.1198 309.794 98.1202C314.041 97.1206 318.294 99.7531 319.294 104C320.293 108.247 317.661 112.5 313.414 113.5C311.375 113.98 309.228 113.63 307.446 112.527C305.665 111.425 304.394 109.659 303.914 107.62Z" fill="#F298BB"/>
<path opacity="0.25" fill-rule="evenodd" clip-rule="evenodd" d="M306.232 104.477C305.837 102.803 306.491 101.055 307.887 100.05C309.283 99.0453 311.147 98.9803 312.61 99.8856C314.072 100.791 314.846 102.488 314.569 104.186C314.292 105.884 313.02 107.248 311.346 107.642C309.059 108.18 306.77 106.763 306.232 104.477Z" fill="#F298BB"/>
<path opacity="0.25" fill-rule="evenodd" clip-rule="evenodd" d="M294.194 102.942C293.831 101.406 294.429 99.8027 295.709 98.8802C296.99 97.9577 298.7 97.8979 300.042 98.7286C301.384 99.5594 302.093 101.117 301.838 102.675C301.583 104.232 300.414 105.482 298.878 105.842C297.872 106.079 296.813 105.906 295.935 105.362C295.056 104.818 294.43 103.948 294.194 102.942Z" fill="#F298BB"/>
<path opacity="0.25" fill-rule="evenodd" clip-rule="evenodd" d="M295.048 101.975C294.852 101.148 295.174 100.284 295.864 99.7873C296.553 99.2904 297.474 99.2581 298.197 99.7056C298.92 100.153 299.301 100.992 299.164 101.831C299.026 102.67 298.396 103.343 297.569 103.536C296.442 103.799 295.315 103.101 295.048 101.975Z" fill="#F298BB"/>
<path opacity="0.15" fill-rule="evenodd" clip-rule="evenodd" d="M314.478 99.342C311.441 97.73 299.992 95.525 291.448 104.342C284.486 111.617 282.985 122.541 287.727 131.424C287.003 128.348 286.757 117.624 293.479 109.483C300.201 101.342 309.957 99.784 314.478 99.342Z" fill="#D6B6D8"/>
<path fill-rule="evenodd" clip-rule="evenodd" d="M314.477 99.342C314.477 99.342 300.572 95.119 291.57 105.602C282.568 116.085 286.708 129.687 287.727 131.419C287.727 131.419 279.25 117.063 290.343 104.528C300.699 92.826 314.477 99.342 314.477 99.342Z" fill="#D7CEE7"/>
<path fill-rule="evenodd" clip-rule="evenodd" d="M349.576 144.552C348.206 147.439 336.992 145.182 321.797 139.46C315.521 137.095 308.561 134.136 301.336 130.708C293.852 127.156 286.935 123.503 280.995 120.022C267.321 112.016 258.758 104.929 260.11 102.082C261.394 99.382 271.292 101.188 285.01 106.118C284.539 106.85 284.105 107.606 283.71 108.382C278.145 106.777 274.456 106.406 273.869 107.646C273.251 108.946 276.169 111.774 281.387 115.302C288.288 119.797 295.502 123.793 302.973 127.259C310.165 130.74 317.585 133.729 325.182 136.205C331.603 138.2 335.93 138.761 336.571 137.411C337.181 136.123 334.326 133.335 329.196 129.852C329.54 129.068 329.845 128.267 330.108 127.452C342.957 135.113 350.879 141.807 349.576 144.552Z" fill="#D5E9F9"/>
<path fill-rule="evenodd" clip-rule="evenodd" d="M349 145.358C347.629 148.245 336.415 145.988 321.221 140.266C314.944 137.901 307.985 134.942 300.759 131.514C293.276 127.962 286.359 124.309 280.418 120.828C266.743 112.822 258.181 105.735 259.532 102.888C260.816 100.188 270.774 102.028 284.489 106.957C284.046 107.691 283.647 108.452 283.295 109.234C277.73 107.628 273.88 107.211 273.295 108.451C272.678 109.751 275.595 112.579 280.814 116.107C287.715 120.602 294.929 124.598 302.401 128.064C309.592 131.545 317.012 134.534 324.609 137.01C331.03 139.005 335.357 139.566 335.999 138.216C336.609 136.928 333.906 134.231 328.775 130.748C329.119 129.964 329.518 129.221 329.782 128.406C342.627 136.066 350.303 142.614 349 145.358Z" fill="#F49639"/>
<path fill-rule="evenodd" clip-rule="evenodd" d="M349.576 144.552C348.206 147.439 336.992 145.182 321.797 139.46C315.521 137.095 308.561 134.136 301.336 130.708C293.852 127.156 286.935 123.503 280.995 120.022C267.321 112.016 258.758 104.929 260.11 102.082C261.394 99.382 271.292 101.188 285.01 106.118C284.539 106.85 284.105 107.606 283.71 108.382C278.145 106.777 274.456 106.406 273.869 107.646C273.251 108.946 276.169 111.774 281.387 115.302C288.288 119.797 295.502 123.793 302.973 127.259C310.165 130.74 317.585 133.729 325.182 136.205C331.603 138.2 335.93 138.761 336.571 137.411C337.181 136.123 334.326 133.335 329.196 129.852C329.54 129.068 329.845 128.267 330.108 127.452C342.957 135.113 350.879 141.807 349.576 144.552Z" fill="#FFE568"/>
<path fill-rule="evenodd" clip-rule="evenodd" d="M343.656 137.359C346.212 139.841 350.363 142.759 348.295 144.5C346.227 146.241 329.995 143.1 299.118 128.738C299.118 128.738 330.469 140.871 338.574 142.297C346.615 143.711 347.744 142.624 343.656 137.359Z" fill="#FCC231"/>
<path fill-rule="evenodd" clip-rule="evenodd" d="M274.904 103.482C271.487 102.791 263.065 100.726 261.45 102.296C259.835 103.866 269.467 112.077 272.945 114.036C272.945 114.036 264.303 107.06 263.929 103.843C263.648 101.441 274.904 103.482 274.904 103.482Z" fill="#FFEDB2"/>
<path fill-rule="evenodd" clip-rule="evenodd" d="M283.637 107.425C281.472 106.753 279.265 106.22 277.031 105.831C273.847 105.325 270.046 104.82 270.437 106.985C270.828 109.15 273.728 111.806 279.602 115.885C285.476 119.964 295.394 125.539 295.394 125.539C295.394 125.539 280.877 118.249 275.317 114.349C269.757 110.449 266.401 106.507 267.177 104.81C268.145 102.693 276.956 104.11 284.043 106.91L283.637 107.425Z" fill="#FFDA60"/>
<path fill-rule="evenodd" clip-rule="evenodd" d="M67.3052 149.774C67.3052 149.774 41.4612 153.563 20.5451 146.153C19.9598 145.943 19.6395 145.313 19.8142 144.716C20.1601 143.529 20.7422 141.439 21.3142 138.961C22.6512 133.18 67.3052 149.774 67.3052 149.774Z" fill="#A9CBD3"/>
<path fill-rule="evenodd" clip-rule="evenodd" d="M21.3138 138.961C20.9598 140.493 20.6028 141.876 20.2998 142.991C41.1848 151.274 67.2998 149.774 67.2998 149.774C67.2998 149.774 22.6498 133.18 21.3138 138.961Z" fill="#8CB8BF"/>
<path fill-rule="evenodd" clip-rule="evenodd" d="M25.57 114.613C25.57 114.613 25.7699 125.863 22.694 131.649C19.6181 137.435 56.767 150.361 67.3059 149.775C67.3059 149.775 52.841 137.587 44.9059 127.838C39.7572 121.782 33.0806 117.216 25.57 114.613Z" fill="#CCE4EA"/>
<path opacity="0.5" fill-rule="evenodd" clip-rule="evenodd" d="M22.6938 131.649C19.6198 137.435 56.7668 150.361 67.3057 149.775C50.4708 144.375 27.4128 125.227 27.4128 125.227C27.2851 121.622 26.665 118.051 25.5698 114.613C25.5698 114.613 25.7678 125.863 22.6938 131.649Z" fill="#A9CBD3"/>
<path fill-rule="evenodd" clip-rule="evenodd" d="M14.2391 117.714C13.1631 117.908 8.15711 118.74 2.86719 119.202C-5.08178 119.896 -11.9418 118.537 -11.0508 120.668C-10.2557 122.568 2.16224 134.757 19.9843 141.448C37.8063 148.139 60.0732 150.348 67.3053 149.773C57.0518 145.987 47.1753 141.249 37.8053 135.621C23.0571 126.635 17.3262 117.155 14.2391 117.714Z" fill="#F7FCFE"/>
<path fill-rule="evenodd" clip-rule="evenodd" d="M67.3054 149.774C67.3054 149.774 57.5814 139.738 51.9214 128.818C44.5094 114.512 42.7504 103.536 41.9653 102.488C41.1803 101.44 37.8793 103.948 32.6073 107.988C30.0796 109.994 27.7252 112.21 25.5693 114.611C25.5693 114.611 50.6154 144.005 67.3054 149.774Z" fill="#F7FCFE"/>
<path fill-rule="evenodd" clip-rule="evenodd" d="M10.2702 119.958C1.69223 122.103 -8.68876 120.344 -6.29374 123.286C-3.89872 126.228 19.7563 144.505 53.5953 147.524C53.5953 147.524 24.0254 140.169 10.9353 132.202C-4.44474 122.842 1.25521 122.956 3.68832 122.402C6.00351 121.961 8.22836 121.135 10.2702 119.958Z" fill="white"/>
<path fill-rule="evenodd" clip-rule="evenodd" d="M62.4379 146.561C62.4379 146.561 39.4188 128.775 28.0879 115.038C28.0879 115.038 32.7878 108.712 38.6479 105.582C38.6479 105.582 33.8049 110.004 32.33 112.882C31.647 114.216 32.9979 117.02 35.2789 119.958C40.684 126.923 62.4379 146.561 62.4379 146.561Z" fill="white"/>
<path fill-rule="evenodd" clip-rule="evenodd" d="M278.022 191.475C278.022 191.475 258.767 199.74 241.022 198.307C240.525 198.264 240.147 197.842 240.159 197.343C240.183 196.351 240.202 194.611 240.136 192.573C239.983 187.814 278.022 191.475 278.022 191.475Z" fill="#A9CBD3"/>
<path fill-rule="evenodd" clip-rule="evenodd" d="M240.14 192.572C240.181 193.833 240.189 194.979 240.184 195.905C258.084 198.021 278.022 191.475 278.022 191.475C278.022 191.475 239.983 187.814 240.14 192.572Z" fill="#8CB8BF"/>
<path fill-rule="evenodd" clip-rule="evenodd" d="M238.42 172.819C238.42 172.819 240.893 181.499 239.702 186.619C238.511 191.739 269.974 194.1 278.023 191.474C278.023 191.474 264.297 185.007 256.138 179.084C250.897 175.451 244.78 173.287 238.42 172.819Z" fill="#CCE4EA"/>
<path opacity="0.5" fill-rule="evenodd" clip-rule="evenodd" d="M239.702 186.619C238.512 191.738 269.974 194.1 278.023 191.474C263.86 190.761 242.036 180.667 242.036 180.667C241.194 177.898 239.977 175.258 238.42 172.819C238.42 172.819 240.893 181.498 239.702 186.619Z" fill="#A9CBD3"/>
<path fill-rule="evenodd" clip-rule="evenodd" d="M230.278 177.559C229.484 177.932 225.778 179.608 221.769 181.059C215.75 183.236 210.152 183.596 211.282 185.065C212.29 186.375 224.43 193.265 239.625 194.777C254.82 196.289 272.539 193.414 278.025 191.477C269.296 190.655 260.663 189.017 252.239 186.586C238.949 182.653 232.553 176.489 230.278 177.559Z" fill="#F7FCFE"/>
<path fill-rule="evenodd" clip-rule="evenodd" d="M278.023 191.475C278.023 191.475 268.416 185.699 261.776 178.397C253.081 168.835 249.456 160.688 248.63 160.037C247.804 159.386 245.764 162.012 242.511 166.237C240.964 168.313 239.596 170.517 238.42 172.823C238.42 172.823 263.896 190.442 278.023 191.475Z" fill="#F7FCFE"/>
<path fill-rule="evenodd" clip-rule="evenodd" d="M227.661 180.117C221.454 183.547 213.043 184.324 215.506 186.111C217.969 187.898 240.075 197.19 266.93 192.556C266.93 192.556 242.491 192.951 230.701 189.472C216.847 185.386 221.291 184.3 223.062 183.365C224.766 182.547 226.321 181.45 227.661 180.117Z" fill="white"/>
<path fill-rule="evenodd" clip-rule="evenodd" d="M273.586 189.986C273.586 189.986 252.075 180.944 240.459 172.629C240.459 172.629 242.802 166.755 246.697 163.121C246.697 163.121 243.854 167.547 243.304 170.082C243.049 171.257 244.674 173.153 247.048 174.96C252.674 179.246 273.586 189.986 273.586 189.986Z" fill="white"/>
<path fill-rule="evenodd" clip-rule="evenodd" d="M1.55957 190.712H-8.4724C-9.29137 183.916 -15.0563 178.802 -21.9014 178.799V172.489C-21.9039 164.79 -28.1438 158.553 -35.8391 158.555L-35.8353 158.555C-43.5309 158.555 -49.7693 164.793 -49.7693 172.489V176.611C-51.7268 172.628 -56.1727 170.521 -60.4951 171.528C-64.8175 172.536 -67.8741 176.391 -67.8691 180.829L-67.8693 190.713H-79.6033C-81.9087 190.714 -83.7773 192.583 -83.7773 194.888H-83.7772C-83.7773 197.192 -81.9093 199.061 -79.6044 199.062H1.55872C3.86414 199.062 5.73315 197.193 5.73376 194.888C5.73426 193.782 5.29493 192.719 4.51221 191.936C3.72962 191.153 2.66785 190.712 1.56055 190.712H1.55957Z" fill="white"/>
<circle cx="190.097" cy="79.516" r="7.327" fill="white" fill-opacity="0.2"/>
<path fill-rule="evenodd" clip-rule="evenodd" d="M190.096 88.103C189.413 88.103 188.858 87.5489 188.857 86.865V72.165C188.858 71.4811 189.412 70.927 190.096 70.927C190.425 70.927 190.74 71.0574 190.972 71.2896C191.204 71.5218 191.334 71.8366 191.334 72.165V86.865C191.334 87.1939 191.204 87.5088 190.971 87.7408C190.739 87.9729 190.424 88.1032 190.096 88.103H190.096Z" fill="white" fill-opacity="0.298039"/>
<path fill-rule="evenodd" clip-rule="evenodd" d="M198.683 79.515C198.683 80.1989 198.129 80.7534 197.445 80.754H182.745C182.061 80.7534 181.507 80.1989 181.507 79.515C181.507 79.186 181.638 78.8712 181.87 78.6392C182.102 78.4071 182.417 78.2768 182.745 78.277H197.445C197.773 78.277 198.088 78.4074 198.32 78.6396C198.552 78.8717 198.683 79.1866 198.683 79.515Z" fill="white" fill-opacity="0.298039"/>
<path fill-rule="evenodd" clip-rule="evenodd" d="M195.293 79.515C195.293 80.1992 194.739 80.754 194.054 80.7539H186.137C185.453 80.754 184.898 80.1992 184.898 79.515C184.9 78.8315 185.454 78.278 186.137 78.278H194.054C194.738 78.278 195.292 78.8315 195.293 79.515Z" fill="white"/>
<path fill-rule="evenodd" clip-rule="evenodd" d="M190.096 84.713C189.412 84.713 188.857 84.1583 188.857 83.474V75.553C188.857 74.8687 189.412 74.314 190.096 74.314C190.78 74.3145 191.334 74.869 191.334 75.553V83.47C191.335 83.7991 191.206 84.1151 190.973 84.3484C190.741 84.5815 190.426 84.7127 190.096 84.713Z" fill="white"/>
<path fill-rule="evenodd" clip-rule="evenodd" d="M234.469 129.154C234.469 128.063 235.353 127.179 236.443 127.179C237.534 127.179 238.418 128.063 238.419 129.153C238.419 130.244 237.535 131.128 236.445 131.129C235.921 131.129 235.418 130.921 235.047 130.551C234.677 130.18 234.469 129.678 234.469 129.154Z" fill="#FFEDB2"/>
<path fill-rule="evenodd" clip-rule="evenodd" d="M102.623 70.93C102.623 70.1305 103.105 69.4105 103.843 69.1051C104.581 68.7997 105.431 68.9689 105.995 69.534C106.56 70.099 106.729 70.9485 106.422 71.6865C106.117 72.4243 105.396 72.9053 104.597 72.905C103.507 72.9047 102.623 72.0205 102.623 70.93Z" fill="#FFEDB2"/>
<path fill-rule="evenodd" clip-rule="evenodd" d="M94.3662 121.633C94.3658 120.834 94.8469 120.113 95.5852 119.807C96.3236 119.5 97.1737 119.669 97.739 120.234C98.3044 120.799 98.4738 121.649 98.168 122.388C97.8623 123.126 97.1417 123.608 96.3424 123.608C95.8184 123.608 95.3157 123.4 94.9451 123.03C94.5745 122.659 94.3662 122.157 94.3662 121.633Z" fill="#FFEDB2"/>
<path fill-rule="evenodd" clip-rule="evenodd" d="M213.091 66.774C213.09 65.9755 213.572 65.2548 214.31 64.9487C215.048 64.6426 215.898 64.8114 216.464 65.3763C217.029 65.9413 217.198 66.7911 216.893 67.5296C216.587 68.2681 215.867 68.7498 215.067 68.75C214.543 68.7502 214.04 68.5421 213.67 68.1715C213.299 67.8009 213.091 67.2982 213.091 66.774Z" fill="#FFEDB2"/>
</g>
<defs>
<linearGradient id="paint0_linear" x1="93.2475" y1="253.886" x2="93.2475" y2="331.141" gradientUnits="userSpaceOnUse">
<stop stop-color="#F59D10" stop-opacity="0.501961"/>
<stop offset="0.144" stop-color="#F59D10" stop-opacity="0.470588"/>
<stop offset="0.361" stop-color="#F59D12" stop-opacity="0.384314"/>
<stop offset="0.624" stop-color="#F69E16" stop-opacity="0.247059"/>
<stop offset="0.921" stop-color="#F69F1B" stop-opacity="0.054902"/>
<stop offset="1" stop-color="#F7A01D" stop-opacity="0.01"/>
</linearGradient>
<linearGradient id="paint1_linear" x1="175.336" y1="152.226" x2="175.336" y2="132.479" gradientUnits="userSpaceOnUse">
<stop stop-color="#F2A37C"/>
<stop offset="0.09" stop-color="#F2A47D" stop-opacity="0.968627"/>
<stop offset="0.225" stop-color="#F2A780" stop-opacity="0.882353"/>
<stop offset="0.39" stop-color="#F3AC86" stop-opacity="0.741176"/>
<stop offset="0.577" stop-color="#F4B28D" stop-opacity="0.54902"/>
<stop offset="0.783" stop-color="#F6BB97" stop-opacity="0.298039"/>
<stop offset="1" stop-color="#F8C6A3" stop-opacity="0.01"/>
</linearGradient>
<linearGradient id="paint2_linear" x1="194.755" y1="150.563" x2="194.755" y2="132.446" gradientUnits="userSpaceOnUse">
<stop stop-color="#F2A37C"/>
<stop offset="0.09" stop-color="#F2A47D" stop-opacity="0.968627"/>
<stop offset="0.225" stop-color="#F2A780" stop-opacity="0.882353"/>
<stop offset="0.39" stop-color="#F3AC86" stop-opacity="0.741176"/>
<stop offset="0.577" stop-color="#F4B28D" stop-opacity="0.54902"/>
<stop offset="0.783" stop-color="#F6BB97" stop-opacity="0.298039"/>
<stop offset="1" stop-color="#F8C6A3" stop-opacity="0.01"/>
</linearGradient>
</defs>
</svg>
